<svg width="475" height="487" viewBox="0 0 475 487" fill="none" xmlns="http://www.w3.org/2000/svg">
<path d="M178.717 444.459C168.306 433.285 169.273 416.175 180.876 406.244L415.823 205.146C427.425 195.215 445.271 196.223 455.682 207.397V207.397C466.092 218.572 465.126 235.682 453.523 245.613L218.576 446.71C206.973 456.642 189.128 455.634 178.717 444.459V444.459Z" fill="#3A405A"/>
<path d="M147.492 251.47C140.593 244.065 141.233 232.726 148.923 226.145L398.042 12.9169C405.731 6.33544 417.557 7.00339 424.457 14.4088V14.4088C431.356 21.8142 430.715 33.1528 423.026 39.7342L173.907 252.962C166.218 259.544 154.391 258.876 147.492 251.47V251.47Z" fill="#3A405A"/>
<path d="M24.9266 458.844C11.245 444.159 12.515 421.674 27.7633 408.622L385.932 102.055C401.181 89.0038 424.633 90.3284 438.315 105.014V105.014C451.996 119.699 450.726 142.185 435.478 155.236L77.3089 461.803C62.0606 474.854 38.6082 473.53 24.9266 458.844V458.844Z" fill="#3A405A"/>
</svg>
