<svg id="visual" viewBox="0 0 960 540" width="960" height="540" xmlns="http://www.w3.org/2000/svg" xmlns:xlink="http://www.w3.org/1999/xlink" version="1.1"><rect x="0" y="0" width="960" height="540" fill="#5C0026"></rect><defs><linearGradient id="grad1_0" x1="43.8%" y1="0%" x2="100%" y2="100%"><stop offset="14.444444444444446%" stop-color="#db005b" stop-opacity="1"></stop><stop offset="85.55555555555554%" stop-color="#db005b" stop-opacity="1"></stop></linearGradient></defs><defs><linearGradient id="grad1_1" x1="43.8%" y1="0%" x2="100%" y2="100%"><stop offset="14.444444444444446%" stop-color="#db005b" stop-opacity="1"></stop><stop offset="85.55555555555554%" stop-color="#5c0026" stop-opacity="1"></stop></linearGradient></defs><defs><linearGradient id="grad2_0" x1="0%" y1="0%" x2="56.3%" y2="100%"><stop offset="14.444444444444446%" stop-color="#db005b" stop-opacity="1"></stop><stop offset="85.55555555555554%" stop-color="#db005b" stop-opacity="1"></stop></linearGradient></defs><defs><linearGradient id="grad2_1" x1="0%" y1="0%" x2="56.3%" y2="100%"><stop offset="14.444444444444446%" stop-color="#5c0026" stop-opacity="1"></stop><stop offset="85.55555555555554%" stop-color="#db005b" stop-opacity="1"></stop></linearGradient></defs><g transform="translate(960, 0)"><path d="M0 459C-45.5 431.7 -91.1 404.4 -121.4 373.8C-151.8 343.2 -167.1 309.3 -216.9 298.5C-266.7 287.8 -351 300.1 -371.3 269.8C-391.7 239.5 -348 166.4 -351.9 114.3C-355.8 62.3 -407.4 31.1 -459 0L0 0Z" fill="#990041"></path><path d="M0 229.5C-22.8 215.8 -45.5 202.2 -60.7 186.9C-75.9 171.6 -83.5 154.6 -108.4 149.3C-133.3 143.9 -175.5 150.1 -185.7 134.9C-195.8 119.7 -174 83.2 -175.9 57.2C-177.9 31.1 -203.7 15.6 -229.5 0L0 0Z" fill="#db005b"></path></g><g transform="translate(0, 540)"><path d="M0 -459C46 -452.2 92.1 -445.5 141.2 -434.6C190.4 -423.8 242.6 -408.9 269.8 -371.3C296.9 -333.8 299 -273.5 318.8 -231.6C338.5 -189.7 376 -166.2 402.3 -130.7C428.6 -95.2 443.8 -47.6 459 0L0 0Z" fill="#990041"></path><path d="M0 -229.5C23 -226.1 46 -222.7 70.6 -217.3C95.2 -211.9 121.3 -204.5 134.9 -185.7C148.5 -166.9 149.5 -136.7 159.4 -115.8C169.3 -94.9 188 -83.1 201.1 -65.4C214.3 -47.6 221.9 -23.8 229.5 0L0 0Z" fill="#db005b"></path></g></svg>