<svg width="438" height="112" viewBox="0 0 438 112" fill="none" xmlns="http://www.w3.org/2000/svg">
<g clip-path="url(#clip0_16_549)">
<path d="M247.828 58.2269C247.696 58.8394 247.314 59.3526 246.966 59.3526L246.751 59.4685C245.541 60.1473 244.215 60.644 242.889 61.1407L242.442 61.3062C241.995 61.5711 241.149 62.0016 240.553 62.2665C239.956 62.5314 238.498 63.1605 237.951 63.3757C237.404 63.5909 236.211 64.4518 235.929 64.5015C235.647 64.5512 234.587 65.3127 233.675 65.6273C232.764 65.9419 230.659 67.2994 230.394 67.2829C230.129 67.2663 229.383 67.7299 229.167 67.9286C228.952 68.1272 228.057 68.6736 227.792 68.7729C227.527 68.8722 226.466 69.3524 226.052 69.6007C225.637 69.849 224.096 70.8258 223.417 71.1238C222.737 71.4218 220.632 72.2496 220.317 72.5476L220.119 72.6139L219.323 72.8622C218.61 73.3423 217.136 74.2032 216.042 74.7827L215.047 75.329C214.583 75.5773 214.136 75.8753 213.622 76.0409L212.611 76.3886C211.617 77.0508 210.589 77.5475 210.341 77.4647C210.092 77.3819 209.396 78.0773 209.181 78.2925C208.965 78.5077 208.037 78.9547 207.706 79.0044C207.374 79.0541 206.131 79.3686 205.369 79.3686L205.336 80.1964C205.336 80.3785 204.607 80.5772 204.176 80.6765L204.043 80.7096C203.761 80.6765 203.132 81.0573 202.634 81.5705C202.137 82.0838 199.767 82.895 199.303 83.1599C198.839 83.4248 197.911 84.4347 197.845 84.2691C197.779 84.1036 197.497 84.0374 197.348 84.3685C197.199 84.6996 196.088 84.9976 196.105 85.1135C196.121 85.2294 195.939 85.4446 195.674 85.3287L195.409 85.2625C195.326 85.2459 195.16 85.2625 195.094 85.3287C194.796 85.6267 194.58 86.1399 194.232 86.2062L193.702 86.2889C193.254 86.5042 192.426 86.9346 191.862 87.2326C191.299 87.5306 188.846 88.8882 187.769 89.6332L186.741 90.2623C186.526 90.3948 186.277 90.5438 186.012 90.5935C185.664 90.6597 185.25 90.5603 184.935 90.6762C184.752 90.7425 184.769 91.1067 184.587 91.2557L184.388 91.4378C184.09 91.5868 183.742 91.8682 183.609 92.0338H183.476L182.963 92.0669C182.648 92.3815 182.25 92.8285 182.068 93.0768C181.885 93.3252 180.725 93.0272 180.344 93.1596L180.294 93.3417L180.145 93.9708C179.499 94.1364 178.836 94.4178 178.67 94.6C178.505 94.7821 177.643 94.9973 177.162 95.0635L176.996 95.5933L176.831 96.1231C176.168 96.4708 175.588 96.7356 175.521 96.7191C175.455 96.7025 175.173 96.5701 174.991 96.4873C174.809 96.4045 174.196 97.0171 173.964 97.2489C173.732 97.4807 172.373 98.2091 171.577 98.5899L170.931 99.0866L170.268 99.5833C169.323 99.9309 168.279 100.461 167.915 100.775C167.55 101.09 166.125 101.355 166.042 101.487C165.959 101.62 164.699 102.447 163.523 103.126L162.446 103.408C162.114 103.49 161.617 103.424 161.435 103.59L160.904 104.12C160.208 104.583 159.264 104.716 158.8 104.434L158.551 105.146L158.452 105.444C158.004 105.692 157.424 105.974 157.192 106.057C156.96 106.139 155.551 106.537 154.64 106.802C153.728 107.066 151.226 108.457 150.696 108.739L150.182 108.888L148.16 109.467C146.039 110.295 143.669 111.123 142.906 111.305C142.144 111.487 140.106 112.05 140.023 111.984C139.94 111.917 139.509 111.884 139.244 111.901C138.979 111.917 138.167 111.884 138.117 111.719C138.067 111.553 137.636 111.073 137.272 111.222C136.907 111.371 136.029 111.487 136.062 111.156C136.095 110.825 134.869 111.272 134.438 111.106C134.007 110.941 132.747 110.725 132.615 111.023L132.399 111.056L131.123 111.272C129.698 111.338 128.472 111.371 128.405 111.354C128.339 111.338 128.007 111.056 127.759 110.825C127.51 110.593 125.787 110.527 124.726 109.848L124.66 109.037C124.66 108.921 125.157 107.265 125.223 107.166L125.339 106.967C125.455 106.735 125.604 106.272 125.671 105.941C125.737 105.61 125.737 104.533 125.505 104.302C125.273 104.07 124.328 104.202 124.328 103.706C124.328 103.209 123.881 101.802 123.334 101.603C122.787 101.404 121.809 100.03 121.08 99.8813L121.494 99.0369L121.693 98.623C121.594 98.0601 121.345 97.0005 121.146 96.2555C120.948 95.5105 119.489 92.4974 118.859 90.9742L118.18 89.6167L118.114 89.4842C118.246 89.269 118.428 88.6233 118.528 88.0273C118.627 87.4313 118.114 85.875 118.114 85.7923C118.114 85.7095 118.23 85.4612 118.379 85.2294C118.528 84.9976 118.594 84.1367 118.213 84.0042C117.832 83.8718 116.937 85.0141 116.291 85.3784C115.644 85.7426 112.843 87.3154 111.435 88.077C110.026 88.8385 106.248 91.1398 105.916 91.2722C105.585 91.4047 103.894 92.2325 102.883 92.7126C101.872 93.1927 99.0716 94.9642 98.5247 95.2125C97.9778 95.4609 96.2376 96.5535 95.6742 96.7853C95.1107 97.0171 93.354 97.7621 93.0557 97.9111C92.7574 98.0601 91.5144 98.7058 90.9178 98.9872C90.3212 99.2687 88.1004 100.03 87.4541 100.279C86.8078 100.527 84.7693 101.322 84.3716 101.487C83.9738 101.653 82.0514 101.139 81.8857 101.073C81.7199 101.007 81.2891 101.206 81.5045 101.272C81.7199 101.338 82.1343 101.752 81.8525 101.967H81.7365L80.9079 102.116C79.9632 102.216 79.0849 102.265 78.9523 102.249C78.8197 102.232 77.9082 101.984 77.2287 101.802C76.5493 101.62 74.6931 101.057 74.7926 100.345L73.9142 99.8647L73.3839 99.5667C72.9861 98.9376 72.837 98.4575 73.0359 98.5237C73.2347 98.5899 73.9308 98.6396 73.9473 98.4409C73.9639 98.2422 73.8645 97.6959 73.6656 97.7124L73.5993 97.7621L73.1519 98.0932C72.6547 97.9277 71.6935 97.282 71.014 96.6694L70.5334 96.0403L70.3511 95.8085C70.4837 95.3946 70.3676 94.9807 70.1025 94.898C69.8373 94.8152 70.2516 94.2192 70.2516 94.1529C70.2516 94.0867 69.655 93.7225 68.959 93.3583L69.0584 92.6298C69.1247 92.1828 68.959 91.8186 68.5115 91.5371L68.18 91.3219C67.7492 90.9411 67.7657 90.5603 68.2463 90.461C68.7269 90.3617 69.7876 89.7325 69.9699 89.4842C70.1522 89.2359 70.9311 88.7558 71.4283 88.8385L71.6935 88.7061C72.1243 88.5074 72.4227 88.1101 72.837 87.8452L73.1021 87.6631C73.4667 87.5472 74.4445 87.332 75.2732 87.183L75.3395 86.0406V85.8088C75.3395 85.577 75.5715 85.5108 75.8532 85.6598C76.1349 85.8088 76.9304 85.3949 76.831 84.7658H77.9248C78.1071 84.7658 78.3391 84.4512 78.4551 84.2526L78.5048 84.1532C78.3557 83.9711 78.1734 83.8718 78.0905 83.938C78.0077 84.0042 77.5933 83.938 77.7259 83.3751L77.8916 83.044C77.9745 82.8784 78.1402 82.6963 78.538 82.9116L78.8197 83.0771C79.2838 83.0275 80.3113 82.6135 81.0736 82.15L81.0405 81.3719V81.2229C81.0405 81.0573 81.173 80.8255 81.3222 80.7262C81.4714 80.6269 81.9685 80.4944 81.9851 80.7262L82.0845 80.958C82.1343 81.0904 82.3331 81.256 82.4823 81.2725C82.6314 81.2725 82.9297 81.1401 82.9463 81.0408L83.0458 80.511C83.4601 80.064 83.8247 79.6004 83.8744 79.4845V78.8388C84.471 78.5574 85.0842 78.2594 85.2499 78.1932C85.4157 78.1269 86.0454 78.0276 86.2774 78.011C86.5095 77.9945 86.4266 77.5144 86.2774 77.4316C86.1283 77.3488 85.6145 76.67 85.9957 76.4051C86.3769 76.1402 87.9016 76.223 88.0341 75.9084C88.1667 75.5939 89.4428 75.0807 89.7411 74.7827L90.1057 74.584C90.5532 74.3356 90.6361 74.0873 90.1555 73.7893C90.1223 73.7728 90.3377 73.3589 90.5201 73.3092L91.0338 73.1436C91.6967 73.0277 92.2768 73.094 92.3265 73.2926C92.3762 73.4913 92.7242 73.5575 93.006 72.9615L92.4591 72.3821L92.1773 72.0841C92.6248 72.1172 93.6026 71.8192 94.3483 71.4384L94.5804 70.8093L94.6301 70.6603C94.2323 70.3788 94.0666 70.0643 94.2821 69.9484C94.4975 69.8325 94.945 69.3358 94.6135 69.2199L94.4975 69.2861L93.7849 69.6669C93.0225 70.1139 92.2105 70.7099 91.9619 71.0079C91.7133 71.3059 90.6858 71.6702 90.6195 71.5543C90.5532 71.4384 90.2217 71.1735 90.0394 71.4053C89.8571 71.6371 89.36 72.1172 89.2771 72.0675C89.1942 72.0178 89.2274 72.2331 89.5257 72.7132C89.824 73.1933 88.001 73.541 88.0839 73.3754C88.1667 73.2099 88.3159 72.6304 88.1999 72.647C88.0839 72.6635 86.8906 73.2761 85.6311 73.9549C84.3716 74.6337 80.0627 77.1005 78.8363 77.8786L77.6431 78.4912L76.5658 79.0375C75.472 79.7163 73.8148 80.66 72.8867 81.1235L72.2072 81.7692L71.5277 82.4314C70.5334 82.9943 69.307 83.6566 68.7932 83.9049C68.2795 84.1532 66.6222 85.1963 65.9759 85.4777C65.3295 85.7592 62.6613 87.3982 61.2692 88.1929L60.0263 88.9213L59.4297 89.269C58.7999 89.4014 57.8387 89.9974 57.3249 90.61H56.8609L55.4522 90.5603C54.4744 91.2722 53.0823 92.0669 52.3863 92.3152C51.6902 92.5636 49.6849 93.9377 49.0551 94.0702C48.4254 94.2026 47.0499 95.6595 46.5361 96.0072C46.0223 96.3549 44.0336 96.7191 43.7519 96.8681L43.6193 97.0668L43.1387 97.7952C42.194 98.1429 40.9345 98.5899 40.3379 98.8051C39.7413 99.0204 37.9846 100.063 37.5371 100.312L37.1062 100.51C36.8742 100.626 36.5593 100.643 36.3439 100.775C35.6478 101.189 35.0512 101.835 34.2889 102L33.5265 102.166C32.7973 102.464 31.5378 102.961 30.7257 103.242C29.9137 103.524 27.4941 103.242 27.3118 103.391C27.1295 103.54 26.334 103.805 25.9694 103.639C25.6048 103.474 24.279 103.027 23.7983 102.795C23.3177 102.563 21.3456 103.639 20.2021 103.888L19.0917 103.937L18.1636 103.987C17.3018 103.722 16.2578 103.027 15.86 102.447L15.976 102.034L16.1749 101.305C16.3904 100.51 16.5892 99.5667 16.6058 99.1859C16.6224 98.8051 15.3794 98.3416 15.2634 98.2753C15.1474 98.2091 14.5674 97.9608 14.3022 97.8118C14.037 97.6628 13.8879 96.7191 13.8879 96.4045C13.8879 96.09 13.7719 95.2125 13.6393 95.1297H13.5896L13.1421 95.2291C12.6449 95.345 12.3632 95.1628 12.4958 94.8483L12.0649 94.4841L11.6174 94.1033C11.4185 93.4742 10.7888 91.8517 10.2253 90.5107L9.64526 89.3021L9.44639 88.8882C9.03207 88.5074 8.4686 87.8949 8.20344 87.5472C7.93827 87.1995 7.22565 85.8585 7.10964 85.3618L6.96048 84.9148C6.8279 84.534 6.43016 84.2691 6.51302 83.7725L6.56274 83.4248C6.23128 82.9943 5.89983 82.5308 5.80039 82.4149L5.83354 82.3321L6.04898 81.8685C6.08213 81.3222 6.08213 80.6434 6.04898 80.3454C6.01584 80.0474 6.56274 78.6733 6.87762 77.6303L7.78912 76.9018C7.95484 76.7694 7.72283 76.3223 7.88856 76.1733L8.15372 75.925C8.58461 75.7595 8.88292 75.5773 8.81663 75.5111C8.75034 75.4449 8.76691 75.2297 9.06522 75.2131C9.36352 75.1966 9.61212 74.1701 9.81099 73.7893C10.0099 73.4085 10.275 72.7463 10.0762 72.4317L10.4905 72.2165L10.7391 72.0841C10.7888 71.8688 10.9379 71.6205 11.0871 71.5212L11.2197 71.4384L11.6837 71.1569C11.402 70.7927 11.6008 70.3457 12.098 70.1967C12.5952 70.0477 13.0758 68.7563 13.225 68.3756C13.3741 67.9948 14.4513 67.3822 14.8325 67.2663L14.3851 66.9021C14.3022 66.8359 14.4348 66.4385 14.4679 66.4385L15.4457 66.3889C15.5783 65.7432 15.976 64.8657 16.3075 64.4187C16.6389 63.9717 17.3184 62.6307 17.4841 62.6969C17.6499 62.7631 18.3625 62.6473 18.7271 62.3161C19.0917 61.985 19.9701 60.9089 19.7546 60.793C19.5392 60.6771 18.7934 60.3626 18.7105 60.4784C18.6277 60.5943 18.1139 60.7268 17.9316 60.2798L17.6996 60.1804L17.4013 60.0645C16.9538 60.1142 16.2578 60.197 15.8435 60.2798C15.4291 60.3626 13.9542 59.7665 13.2415 59.7169C12.5289 59.6672 10.3745 60.197 10.0264 60.2963C9.67841 60.3957 8.73376 59.2699 9.49611 58.3262L8.53489 57.2666L8.33602 57.0348C8.43545 56.5878 8.33602 56.1905 8.104 56.1739C7.87198 56.1574 7.30851 56.058 7.25879 55.9918C7.20907 55.9256 7.17593 55.5945 7.15936 55.3627C7.14278 55.1309 7.1925 54.3031 7.22565 54.0382C7.25879 53.7733 6.41358 53.1939 6.43016 52.8297L6.23128 52.6972C5.94955 52.4986 5.43579 52.5151 5.05462 52.3992L4.73974 52.2999C4.35857 52.1178 4.06026 51.439 4.09341 50.8099C4.12655 50.1807 2.85045 48.7073 2.81731 48.6079L2.86703 48.5583L3.77852 47.5815C2.80073 47.1179 1.54121 46.3232 1.01088 45.8431L0.944592 45.2637L0.861728 44.5518C0.894874 43.724 0.795438 43.1114 0.646283 43.1611C0.497129 43.2107 0.132529 43.0949 0.099384 42.7969L0.215393 42.7472C0.579992 42.5816 1.64065 42.6147 0.265111 42.3167C0.19882 42.3167 0.115957 42.2505 0.099384 42.2008C-0.0497703 41.1413 -0.165779 40.0983 0.579992 39.138C0.729147 38.9393 1.12689 38.8731 1.35891 38.691C1.64065 38.4758 2.12125 38.0784 2.07154 38.0122C1.4252 37.2507 2.55214 37.7473 2.63501 37.4824C2.73444 37.1017 2.8836 36.6878 3.18191 36.4063C3.74538 35.8931 4.39171 35.4626 5.05462 35.0322L5.45237 34.7673C5.68438 34.3865 6.47987 33.4263 7.20907 32.615L8.55146 32.8137H8.66747C8.8332 32.6647 9.14808 32.3005 9.3801 32.0521C9.61212 31.8038 10.4573 31.3733 10.5733 31.0919C10.6893 30.8105 11.982 30.8104 12.3963 30.5787C12.8106 30.3469 13.457 29.5522 13.8713 29.9164L14.3022 29.3535L14.3353 29.3204C14.0205 29.0721 14.037 28.8569 14.3851 28.8569C14.7331 28.8569 15.4954 28.592 15.396 28.2609L15.4954 28.0787L15.7606 27.5986C16.3406 27.6317 16.8544 27.4827 16.871 27.2675C16.8875 27.0523 17.5173 26.5722 17.9316 26.3569C18.3459 26.1417 19.8375 25.8603 20.3015 25.7444C20.7655 25.6285 21.6439 24.8172 21.8759 24.751C22.1079 24.6848 22.8371 24.6186 22.8206 24.2875L22.8537 24.0557V23.9563C22.9531 23.8405 23.6989 23.708 24.511 23.6583V22.814C25.2567 22.6815 26.3008 22.3008 26.8477 21.9531L27.3781 21.6716L27.7095 21.4895C28.157 21.4895 28.8199 21.3405 29.201 21.1419L29.5656 20.9763C29.9965 20.7942 30.444 20.6286 30.8583 20.43C31.2229 20.2478 31.5378 19.9995 31.9024 19.834C32.1344 19.7346 32.4493 19.7346 32.731 19.7015C33.5597 19.6022 34.3054 19.4532 34.67 18.6916C34.8192 18.377 35.2335 18.1121 35.6147 17.93C35.7638 17.8473 35.9959 18.4102 36.4102 17.9963L36.7416 17.6651C37.2222 17.3837 37.9514 17.3671 38.3492 17.6155L38.6806 17.1354C38.7801 17.0029 38.8961 16.8705 38.9789 16.738L39.0452 16.6387C39.1115 16.5228 39.4761 16.4235 39.8407 16.4069C40.2053 16.3903 41.15 15.8274 41.4317 15.8937C41.7134 15.9599 42.3598 15.397 42.6581 15.4798L42.9398 15.3142C43.0393 15.248 43.2713 15.2811 43.3376 15.2149L44.2491 13.9898C45.9063 13.3441 47.4476 12.715 47.6465 12.5991C47.8453 12.4832 48.8066 12.268 49.3535 12.0693C49.9004 11.8706 51.1433 11.0428 51.3753 11.1753C51.6073 11.3077 52.4526 11.5726 52.8669 11.1422L53.3641 10.9766L53.8612 10.811C54.5739 10.8773 55.071 10.811 54.955 10.6455C54.839 10.4799 54.9716 9.96669 55.5682 9.95014L55.85 9.76803L56.2146 9.51969C56.4631 9.66869 57.1592 9.51969 57.789 9.17202L58.369 8.87401L58.5513 8.77468C58.8662 8.82434 59.0153 8.9899 58.8662 9.12235L58.7668 9.27135C58.7668 9.27135 58.9491 9.47002 59.0319 9.45347H59.2308C59.4297 9.35413 59.7114 8.87401 59.8605 8.36078L60.54 8.16211C61.7167 7.81444 63.0591 7.79788 63.954 6.92043C64.0203 6.8542 64.2357 6.90387 64.3849 6.92043L64.8821 6.97009C65.429 7.03632 66.0753 6.97009 66.2908 6.8542C66.5062 6.73831 67.5834 6.37409 68.1469 6.20853C68.7104 6.04297 70.0859 5.48007 70.2848 5.61252C70.4837 5.74497 71.13 6.04297 71.1466 5.91052C71.1631 5.77808 71.7763 5.57941 72.3232 5.5463C72.8701 5.51318 74.5771 4.9834 75.0411 4.85095C75.5052 4.71851 76.6487 5.34763 76.7979 5.33107C76.947 5.31451 77.9745 5.82774 78.7369 6.29131C79.4992 6.75487 82.7806 5.9933 83.775 5.76152L84.819 5.9933L85.6145 6.17542C86.6255 5.97675 87.6695 5.77808 87.9347 5.74497C88.1999 5.71185 89.1445 6.02641 89.4097 5.91052C89.6748 5.79463 90.3875 5.72841 90.404 6.04297C90.4206 6.35753 91.5973 5.97675 91.7796 5.92708L91.8956 5.97675L92.6414 6.32442C93.3374 6.82109 94.1826 7.45021 94.5141 7.74822C94.8455 8.04622 95.9559 8.50978 95.8565 8.60912C95.757 8.70845 95.8067 9.30446 96.1548 9.76803L96.4365 10.215L97.0497 11.1422C98.1601 11.9037 98.8893 12.6984 98.6572 12.8805C98.4252 13.0626 98.0606 13.758 98.4087 13.9732L98.7567 14.056H98.8395C99.0881 13.7249 99.6185 13.6917 100.016 13.9898L100.315 14.2878C100.414 14.3871 100.348 14.6023 100.364 14.7679C100.397 15.1155 99.2041 14.6023 99.7842 15.2811C100.165 15.7281 99.7842 15.8937 99.5522 16.1751L99.3202 16.44C99.1544 16.8705 99.2704 17.4002 99.6019 17.6155C99.9333 17.8307 100.082 18.9068 100.165 19.0393C100.248 19.1717 101.16 20.4134 101.955 21.5061L101.756 22.7478C101.657 23.4266 101.707 24.0557 102.535 24.5027L102.8 24.6351C102.95 24.9497 103.148 25.4298 103.264 25.6947C103.38 25.9596 104.64 26.3238 105.087 26.4397L105.154 26.6384C105.353 27.2344 105.667 27.251 106.214 26.9364C106.281 26.9033 106.496 26.9861 106.596 27.0357L106.778 27.1516C106.993 27.3503 107.043 27.5655 106.861 27.6483C106.678 27.7311 106.38 28.2112 106.579 28.5423L106.695 28.7741L106.828 29.039C106.944 29.337 107.076 29.6681 107.109 29.784C107.142 29.8999 106.695 30.9594 106.198 32.0852L105.087 32.8634L104.524 33.2607C104.259 34.0388 103.927 34.8832 103.762 35.1481C103.596 35.413 102.353 36.3566 101.906 36.9195L101.359 37.0685C100.414 37.3169 101.441 37.5652 101.243 37.7308C100.994 37.9626 100.729 38.1778 100.447 38.3765L99.751 38.8731C98.9721 39.4195 98.1435 40.1148 97.8949 40.4128C97.6463 40.7108 96.6354 41.4558 96.7348 41.7538C96.8343 42.0518 95.3593 42.5485 94.829 42.9293L94.3815 43.3266L93.8843 43.7736C93.122 44.3862 92.8402 44.8332 93.2545 44.767C93.6689 44.7008 95.4256 43.9061 96.768 43.3101L98.0938 42.9624L98.823 42.7637C98.7733 42.2008 98.7733 41.6545 98.823 41.5386H98.9058C99.0384 41.4724 99.287 41.4558 99.3367 41.5221L99.4859 41.7042C99.635 42.0353 99.9831 42.0518 100.248 41.7538L100.464 41.5221C100.58 41.3896 100.712 41.1578 100.812 41.1744L101.922 41.2903C102.469 40.6115 103.115 39.8168 103.331 39.5188C103.546 39.2208 105.237 39.0387 105.85 38.691L106.562 38.5917C106.877 38.542 107.192 38.3599 107.457 38.1778L107.507 38.1447C107.341 37.8963 107.374 37.6977 107.573 37.6977C107.772 37.6977 108.518 37.5983 108.651 37.4493C108.783 37.3003 109.38 36.5553 109.562 36.2242L110.258 36.3732C110.59 36.4394 111.236 35.9262 111.567 35.562L111.849 35.2474C112.247 35.0156 112.628 34.817 112.727 34.7838C112.827 34.7507 113.258 34.7342 113.606 34.668C113.954 34.6017 115.097 34.0388 115.479 33.6746L115.744 33.2773C116.025 32.8634 116.473 33.9892 116.589 33.1945C116.705 32.3667 117.186 33.2442 117.335 33.0786L117.666 32.7309C117.931 32.9461 118.18 32.8799 118.246 32.5819L118.412 32.3667L118.528 32.2177C118.826 32.1515 119.489 32.0521 120.019 32.0025C120.55 31.9528 121.809 31.0257 122.157 30.6614L122.522 30.38L122.605 30.3138C122.953 30.4462 123.268 30.4131 123.301 30.231C123.334 30.0489 123.616 29.4198 123.748 29.6515C123.881 29.8833 124.411 30.1317 124.71 29.933C125.008 29.7343 125.571 29.3701 125.654 29.0059L126.301 29.0555L126.731 29.0886C127.212 28.8569 127.809 28.3933 128.041 28.0622L128.571 27.9297C128.836 27.8635 128.952 27.6648 129.234 27.9297L129.333 28.0291C129.598 28.0291 130.145 27.7476 130.543 27.4L131.173 27.2675L131.753 27.1516C132.3 26.7377 133.327 26.1748 134.073 25.9099C134.819 25.645 137.437 25.0987 138.183 24.9662L138.73 24.4861L139.31 23.9729C140.238 23.8073 141.117 23.9563 141.266 24.2875C141.415 24.6186 141.879 25.5126 141.945 25.496C142.011 25.4795 142.111 25.2808 142.061 25.0821C142.011 24.8835 141.796 24.1219 141.746 23.8239L142.741 23.261C143.553 22.7974 144.879 23.0623 145.293 22.0855C145.309 22.0524 145.641 22.0193 145.724 22.0855C146.453 22.6153 146.353 22.9796 145.376 23.4597H145.343C145.343 23.4597 146.138 23.4762 147.099 23.3438L147.53 23.1948C147.978 23.0458 148.508 22.9464 148.972 22.9961L149.751 23.0954C149.9 22.5988 150.132 22.3339 150.248 22.4994C150.364 22.665 150.894 23.1617 150.961 22.9961C151.027 22.8306 151.11 21.9365 151.126 21.2412L152.436 20.2644L152.651 20.0988C152.883 19.9002 153.165 20.0326 153.281 20.3803C153.397 20.728 154.474 21.3571 155.087 21.0425C155.701 20.728 157.689 20.4796 157.689 20.2478C157.689 20.0161 157.54 19.3373 157.341 19.6518C157.142 19.9664 156.098 19.9002 156.015 19.7512V19.6022C156.065 19.3538 155.767 18.7082 156.645 19.2379L156.794 19.3207C157.507 18.8406 158.17 18.7082 158.253 19.0227V19.2379L158.302 19.4697C158.302 19.7677 158.452 20.0161 158.65 20.0161C158.849 20.0161 159.529 19.7015 159.678 19.3042C159.827 18.9068 160.523 17.8307 160.788 18.1121C161.053 18.3936 162.098 18.8903 162.479 18.5757L162.843 18.4102L163.324 18.1949C163.904 18.0459 164.733 17.8638 165.164 17.7976L165.578 17.8804C166.158 17.9963 166.721 17.8638 167.185 17.5327C167.368 17.4002 167.533 17.2678 167.716 17.1354L169.025 16.291L169.274 16.2082C169.555 16.1089 170.434 15.8606 171.246 15.6453C172.058 15.4301 174.312 14.8838 174.925 14.801C175.538 14.7182 177.46 14.6685 177.759 14.7182C178.057 14.7679 178.123 15.5791 177.626 15.7612C177.129 15.9433 176.847 17.1354 177.096 16.9698C177.344 16.8042 178.239 16.7877 178.687 17.2016L179.151 17.4996L179.565 17.7645C180.162 17.9135 181.073 18.3439 181.587 18.7247L180.758 19.2048L180.593 19.3042C180.676 19.9498 180.891 20.281 181.106 20.0161C181.322 19.7512 181.819 19.3869 181.736 19.8505C181.653 20.3141 181.106 21.0425 181.521 21.0922C181.935 21.1419 183.244 20.9597 183.725 20.877C184.206 20.7942 184.537 19.7346 184.752 19.9002C184.968 20.0657 185.614 20.1485 185.962 19.8505C186.31 19.5525 187.57 19.0558 187.868 19.0393C188.166 19.0227 188.763 18.4433 189.094 18.526L189.409 18.5757L189.608 18.6088C189.84 18.6088 189.956 18.4929 189.89 18.3605C189.824 18.228 190.205 17.9135 190.735 17.6486C191.266 17.3837 192.973 16.738 193.271 16.6056C193.569 16.4731 193.818 15.6619 193.884 15.5957C193.95 15.5294 194.282 15.4798 194.481 15.6288L194.646 15.7778L194.729 15.8606C194.796 15.993 195.193 15.6122 195.608 15.0162L196.005 14.503C196.105 14.3871 196.353 14.2546 196.519 14.2878L197.364 14.4036C197.944 13.9566 198.674 13.4103 198.988 13.1785H199.37L199.9 13.2116C200.381 13.0295 200.894 12.8143 201.043 12.715C201.193 12.6156 201.242 12.0693 201.607 11.8375L201.988 11.7547C202.469 11.6388 202.999 11.6554 203.513 11.6554C203.861 11.6554 203.231 10.6786 204.176 11.2249C204.242 11.2746 204.706 10.8773 204.971 10.6786C205.153 10.5461 205.303 10.3806 205.518 10.2813C205.932 10.0826 206.38 9.91703 206.794 9.7018L207.159 9.50313C207.573 9.50313 208.253 9.2548 208.65 8.92368L209.015 8.62568L209.379 8.32767C209.694 8.07933 210.142 7.88066 210.39 7.89722C210.639 7.91378 211.02 7.73166 210.805 7.45021L211.236 7.15221C211.749 6.82109 211.965 7.1191 212.346 7.28466L212.528 7.36743C212.909 7.15221 213.556 6.72176 213.954 6.42375L214.517 6.87076C214.716 7.03632 214.931 6.82109 214.666 6.32442L214.55 6.12575C214.633 6.02641 215.23 5.71185 215.876 5.4304L216.539 5.34763C216.671 5.34763 216.688 4.76817 217.318 4.73506H217.583C217.881 4.73506 218.71 4.65228 219.439 4.55295C220.168 4.45361 221.229 2.83114 221.759 2.73181C222.29 2.63247 224.129 2.25169 224.676 1.93713C225.223 1.62257 225.985 1.2749 226.118 1.39079C226.251 1.50668 226.831 1.75502 226.963 1.58946L226.93 1.49012L226.847 1.29145C226.681 1.09278 226.764 0.811336 227.029 0.662334C227.295 0.513332 228.206 0.397441 228.968 0.314662L229.631 0.215327L230.029 0.149104C230.394 -0.0495653 231.703 0.413997 232.946 1.15901L234.073 1.87091L234.255 1.9868C234.421 2.15236 234.951 2.41725 235.399 2.56625C235.846 2.71525 237.205 2.35103 237.918 2.11924L238.597 2.41725C239.36 2.74837 240.089 3.09604 241.017 2.96359C241.249 2.93048 243.238 4.00661 243.536 4.15561C243.768 4.2715 244.166 4.15561 244.414 4.25494C244.729 4.37083 244.961 4.7185 245.276 4.75162C246.022 4.85095 245.757 5.2814 245.74 5.57941V5.77808C245.508 5.9933 245.226 6.42375 245.11 6.73831C244.994 7.05287 246.187 8.04622 245.972 8.17867C245.757 8.31111 245.425 8.97335 245.591 9.42035C245.757 9.86736 247.082 10.6455 246.917 10.9269C246.751 11.2084 246.403 12.0362 246.552 12.1355C246.701 12.2348 246.933 12.6487 246.867 12.8308C246.801 13.013 246.618 13.5593 246.519 13.6421C246.419 13.7249 245.939 13.7745 245.757 13.9898L245.823 14.0725L246.154 14.503C246.585 14.9334 247.016 15.248 247.082 15.1983C247.149 15.1487 247.563 15.0328 247.546 15.2646C247.53 15.4963 247.397 16.0427 247.331 16.0923C247.265 16.142 247.215 16.5228 247.331 16.8374C247.447 17.1519 247.696 18.5923 247.878 19.3042L248.375 19.9167L248.657 20.2478C248.524 20.8439 248.939 21.5226 249.568 21.771L250.115 22.0028L250.248 22.0524C250.712 22.4498 250.911 22.8802 250.679 23.0127C250.447 23.1451 250.331 23.5921 250.364 23.9398C250.397 24.2875 249.585 25.6285 249.336 26.3404H247.961C247.613 26.7212 247.745 27.2344 248.242 27.5158L248.624 27.698C248.806 27.7807 248.806 27.7642 249.005 27.2841C249.088 27.1019 249.27 26.8039 249.436 26.7874C250.397 26.7212 251.01 25.4298 252.203 26.241L254.275 25.0821L254.358 24.9994C254.457 24.9166 254.855 24.7841 255.253 24.7014C255.65 24.6186 256.612 24.0722 256.761 23.9232C256.91 23.7742 258.352 23.7246 258.849 23.3438L259.28 23.0127L261.186 22.6484L261.517 23.0458C261.865 22.814 262.528 22.3504 263.009 22.0028C263.489 21.6551 264.948 20.3637 265.163 19.7843L266.025 20.3472C266.539 20.6949 267.367 20.1651 267.865 20.728L267.931 20.8107C268.279 20.7114 268.942 20.3141 269.406 19.9167L270.085 19.6849C272.124 19.0062 272.505 18.7413 273.416 19.1552L274.245 19.5194C275.19 19.4697 275.869 19.2711 275.753 19.0558C275.637 18.8406 275.886 18.1287 276.499 17.7645C277.112 17.4002 279.432 16.6056 279.648 16.5393L279.896 16.6883C280.211 16.887 280.626 16.9036 280.659 16.4566C280.692 15.9764 281.172 15.993 281.438 16.0923L282.548 16.5228C283.725 16.3076 284.669 15.8606 284.669 15.5294C284.669 15.1983 286.277 14.8175 287.288 14.652L288.05 14.2878C288.514 14.0725 289.094 13.9898 289.641 13.8904L290.089 13.8076C290.47 13.46 290.884 13.3441 291.017 13.5262C291.149 13.7083 291.646 14.1719 291.796 14.1056L291.878 14.0394L292.309 13.7083C292.757 13.3275 293.519 13.2282 294 13.5096L294.315 12.864C294.364 12.7646 294.978 12.8308 295.326 12.864L295.524 12.8971C295.723 12.8971 296.237 12.7646 296.668 12.566C297.099 12.3673 298.839 12.417 299.684 12.566L300.281 11.9534C300.496 11.7382 300.645 11.6719 300.944 11.9203L301.076 12.0196C301.408 11.9534 301.955 11.7878 302.286 11.6554C302.617 11.5229 304.208 11.4733 304.838 11.2415L305.004 11.3739L305.733 11.9368C306.23 11.5395 307.092 11.0428 307.639 10.8442L308.153 10.6952C308.153 10.6952 308.368 10.7614 308.468 10.811C309.495 11.3077 309.561 11.3739 309.992 10.9932L310.523 10.5296C311.036 10.7614 311.65 11.0097 311.882 11.0925C312.114 11.1753 312.677 10.4965 312.859 10.2813H313.025C313.605 10.2978 313.34 10.7117 313.406 10.9766L313.44 11.0925C313.489 11.1918 314.268 10.9269 315.18 10.513L316.025 10.1654C316.969 9.76803 316.605 9.93358 317.102 10.7945L317.566 11.6057C316.986 11.5892 316.837 11.8044 317.201 12.1024L317.45 12.0527C317.881 11.9699 318.494 11.407 318.577 11.4733C319.041 11.7878 319.588 11.8872 319.969 11.6223C320.433 11.2912 320.533 11.6057 320.798 11.7216L320.914 11.7713C321.162 11.6223 321.096 11.3408 320.765 11.1753L321.328 11.0428C321.461 11.0097 321.825 11.2249 321.892 11.3905C322.008 11.6554 322.024 11.8706 322.356 11.5395L322.422 11.4733C322.389 11.2249 323.035 11.1753 323.88 11.3905C324.725 11.6057 326.2 12.9799 325.935 13.1454C325.67 13.311 325.422 14.0063 325.703 14.3209C325.985 14.6354 327.029 15.3308 327.377 15.2314C327.725 15.1321 328.637 14.7348 328.637 14.5692C328.637 14.4036 329.184 14.0394 329.863 14.1553L329.134 14.8838L328.769 15.248C329.283 15.7116 329.863 16.2082 330.078 16.3407C330.294 16.4731 329.515 17.2181 329.349 17.0857C329.184 16.9532 328.736 16.6718 328.703 16.738C328.67 16.8042 328.637 17.1188 328.637 17.4499C328.637 17.781 330.194 18.228 330.808 18.5592L330.078 19.2379L329.896 19.4035C330.261 19.9498 330.775 20.5127 331.04 20.6783C331.305 20.8439 331.471 21.5392 331.703 21.7048C331.935 21.8703 331.321 22.5657 331.205 22.7147C331.089 22.8637 331.123 23.3438 331.272 23.261L331.388 23.1782L331.553 23.0623C331.785 22.8637 332.134 22.8802 332.316 23.0954C332.498 23.3107 332.697 24.0557 332.432 24.3537C332.167 24.6517 330.874 24.9 330.427 24.9C329.979 24.9 328.637 25.1153 328.637 25.3636C328.637 25.6119 328.421 26.2907 328.173 26.2079L328.289 25.6782C328.338 25.0821 328.173 24.602 327.907 24.602C327.642 24.602 326.963 24.6517 326.979 24.7014C326.996 24.751 327.129 25.1318 327.245 25.3967C327.361 25.6616 326.002 26.2245 326.217 26.0258V25.9099C326.25 25.5788 326.366 25.049 326.167 24.9662C325.604 24.6848 325.62 25.1815 325.388 25.4464C325.074 25.794 324.51 26.0093 324.013 26.2245C323.814 26.3073 323.516 26.2245 323.267 26.1748L323.002 26.1417C322.737 26.0755 321.858 26.3238 321.063 26.6881L320.4 27.0854C320.118 27.251 319.257 27.4 320.035 27.9463C319.919 28.0622 319.29 28.294 318.643 28.4761C317.997 28.6582 316.787 29.8833 316.655 29.933C316.522 29.9827 315.743 29.8337 315.03 29.6847L314.749 30.3303L314.467 30.976C313.887 30.8601 313.357 30.9098 313.257 31.0753C313.158 31.2409 312.743 31.7376 312.594 31.8369H312.478C311.103 31.572 310.075 32.1349 309.545 32.9958L309.213 33.5422C308.667 33.807 308.153 33.9064 308.07 33.7739C307.987 33.6415 307.026 33.509 306.081 33.7739L305.253 34.0388L305.087 34.0885C304.971 34.2375 304.573 34.7176 304.208 35.1646C303.844 35.6116 303.463 36.7374 303.529 36.4063C303.595 36.0752 303.164 35.3136 302.816 35.4461C302.468 35.5785 301.872 36.7043 301.723 36.3566L301.507 36.2573C301.159 36.0918 300.844 36.1911 300.778 36.6215C300.761 36.7374 300.38 36.9195 300.148 36.9195H298.789C297.927 37.7308 296.436 38.7407 295.508 39.1546L294.53 39.3036C294.53 39.3036 294.464 39.6016 294.53 39.6347C295.077 39.9327 294.878 40.1645 294.48 40.4294C294.298 40.5453 294.182 40.7439 294 40.7936L293.768 40.8598C293.469 40.8267 293.304 40.5453 293.37 40.2307H294.099C294 39.8334 293.701 39.6016 293.436 39.7009C293.171 39.8003 292.425 40.2804 292.26 40.4128C292.094 40.5453 291.414 40.2638 291.265 40.33C291.116 40.3963 289.79 41.0916 288.696 41.7042L287.719 42.2671L287.387 42.4492C287.023 42.3664 286.608 42.383 286.459 42.4823C286.31 42.5816 286.26 42.8465 286.658 42.8631C287.056 42.8796 288.15 42.9459 288.266 43.128C288.382 43.3101 288.564 44.022 288.299 44.1048L288.1 44.2041L287.918 44.2869C287.719 44.4359 287.503 44.4359 287.42 44.3034C287.337 44.171 286.757 44.1544 286.343 44.6511L286.028 45.0981C285.945 45.214 286.095 45.4127 286.144 45.5782L286.177 45.7107C286.227 45.8597 286.078 45.9756 285.813 45.9921L285.664 45.9093C285.316 45.7107 284.901 45.5782 284.636 45.6444L284.487 45.6776C284.321 45.6776 283.907 45.6113 283.559 45.5451C283.211 45.4789 282.73 44.6345 282.084 44.5352L281.603 44.6842L280.642 44.9822C280.012 45.7769 279.3 46.0915 279.068 45.6941H278.902C278.604 45.6941 278.189 45.9093 278.04 46.1246L277.758 46.5053C277.593 46.9855 277.526 47.5815 277.609 47.8298H278.14C278.256 48.0947 278.272 48.4589 278.189 48.641C278.107 48.8232 277.642 49.2536 277.427 49.0549C277.212 48.8563 276.847 48.1444 276.632 47.8629H275.952C275.902 47.6643 275.853 47.449 275.853 47.3828C275.853 47.3166 275.621 47.1676 275.289 47.2007V47.2504L275.206 48.2437C274.195 48.3099 273.532 48.6079 273.731 48.8894C273.93 49.1708 275.107 49.3198 275.19 49.6013C275.273 49.8827 275.256 50.7436 274.941 50.8264C274.626 50.9092 273.831 49.6344 273.35 49.1046L272.455 49.8827L272.256 50.0483C271.875 50.1642 271.709 50.2966 271.875 50.3463C272.041 50.396 272.107 50.7105 271.693 50.9258C271.279 51.141 271.809 52.2502 271.477 52.4985L271.279 52.4489L270.831 52.3495C270.268 52.035 269.853 51.9357 269.92 52.1343C269.986 52.333 269.986 52.8793 269.77 52.9124C269.555 52.9456 268.875 53.2601 269.091 53.4919C269.306 53.7237 269.489 54.4521 268.991 54.5018L268.759 54.3694L268.478 54.2038C268.445 53.8065 268.378 53.3429 268.312 53.1773C268.246 53.0118 268.411 52.2502 268.842 51.8529C269.273 51.4555 269.008 50.1973 268.71 50.3629C268.411 50.5284 267.699 51.1906 267.782 51.4721C267.865 51.7535 267.815 52.4489 267.5 52.3164C267.185 52.184 265.511 53.2104 265.147 53.1277L264.832 53.0118L264.517 52.9124C264.136 52.8462 263.655 52.8793 263.44 52.9787C263.224 53.078 263.075 53.9389 263.025 54.2866H262.959C262.014 54.3031 262.329 54.8991 262.18 55.2965L262.097 55.5117C261.766 55.7269 261.434 55.76 261.368 55.5945C261.302 55.4289 260.954 55.1971 260.738 55.4124C260.523 55.6276 259.744 56.1739 259.412 56.1408C259.081 56.1077 259.263 56.8693 259.363 56.9521C259.462 57.0348 259.562 57.4156 259.611 57.6309C259.661 57.8461 260.689 58.1441 260.921 58.2765C261.153 58.409 261.302 59.0546 260.722 59.4354L260.142 58.7235L259.943 58.4752C259.479 58.3262 259.031 58.2103 258.948 58.2269C258.866 58.2434 258.203 58.3759 257.639 58.5414L257.739 59.1871L257.805 59.601C257.49 59.4023 256.893 59.1705 256.463 59.0878L256.413 59.601C256.396 59.8162 256.28 60.0314 256.131 60.197L256.098 60.2301C255.8 60.1308 255.534 59.899 255.501 59.7169C255.468 59.5348 255.733 58.8725 255.949 58.6076L256.197 58.3924C256.197 58.3924 256.529 58.409 256.612 58.3593C256.744 58.2434 256.877 58.0613 256.86 57.9289C256.844 57.813 256.595 57.664 256.446 57.6474L256.032 57.6143C255.485 57.6143 255.12 57.8295 255.22 58.0613C255.319 58.2931 254.59 58.6076 254.159 58.5745L253.761 58.5249C253.761 58.5249 253.778 58.409 253.761 58.3593L253.446 57.664C252.667 57.4487 251.839 57.3328 251.59 57.3991L251.557 57.515C251.507 57.6474 251.607 57.8792 251.739 57.9785L252.734 58.7235C253.065 59.4023 253.496 60.048 253.678 60.1804H253.844C253.993 60.1473 254.159 59.9818 254.209 59.8493L254.308 59.6175C254.374 59.154 254.971 59.7334 255.617 60.9089L256.579 61.538C256.893 61.7532 257.241 61.7532 257.374 61.3228L257.407 61.1903C257.54 61.0579 257.822 60.8923 258.037 60.8096C258.252 60.7268 258.932 60.7433 259.015 60.5612C259.098 60.3791 259.645 60.1473 260.026 60.5116C260.407 60.8758 261.103 61.8029 260.771 61.7532C260.44 61.7036 259.578 62.5314 259.015 62.7135L258.584 63.0115L258.534 63.0446C258.335 62.9784 258.252 62.7963 258.319 62.6307C258.385 62.4651 258.435 62.0512 258.219 62.0512C258.004 62.0512 257.639 62.4983 257.706 63.0446L257.54 63.4585L257.374 63.8558C257.573 63.9221 257.556 64.1704 257.357 64.4022C257.159 64.634 256.264 64.8988 255.75 64.5677L255.352 64.6008C254.49 64.6836 254.822 64.0048 254.424 63.8393C253.844 63.6075 253.827 63.5909 254.043 63.4254C254.457 63.1108 254.706 62.6141 255.568 63.0446L255.916 63.2267C256.181 62.6141 255.916 62.1009 255.302 62.0844C254.689 62.0678 253.231 62.6804 252.651 63.0446L252.469 63.475L252.319 63.8227C252.568 64.3028 252.916 64.8657 253.098 65.081C253.281 65.2962 252.518 65.8591 251.772 65.6439L251.076 65.4452H251.06C250.878 64.6505 250.778 63.9717 250.811 63.9552L250.563 64.2863C250.165 64.8161 250.298 64.8161 250.894 64.9982C251.143 65.081 251.424 65.3624 251.706 65.23L251.872 65.1637C251.905 64.8823 251.822 64.3194 251.69 63.9221C251.557 63.5247 251.723 62.5314 251.424 62.6638L251.209 62.6969L250.878 62.7466C250.778 63.4254 250.646 64.3525 250.579 64.7995C250.513 65.2465 250.579 65.9915 251.143 66.1902L251.574 66.3723C252.137 66.6041 252.104 66.6703 251.408 67.1008L251.308 67.167C251.259 67.2994 251.176 67.5809 251.11 67.7796C251.043 67.9782 250.728 68.3921 250.53 68.3756C250.331 68.359 249.502 68.6073 249.154 68.955L248.59 68.9219L248.16 68.8888C247.994 69.1371 247.646 69.551 247.364 69.7828C247.082 70.0146 245.989 70.296 245.641 70.2629C245.293 70.2298 244.895 69.5841 245.061 69.4848C245.226 69.3855 245.607 68.9219 245.293 68.7563L245.077 68.6073C244.762 68.4087 244.563 68.1603 244.928 67.8623L245.226 67.6305C245.657 67.5643 246.353 67.614 246.751 67.7133C247.149 67.8127 247.961 66.6869 248.06 66.5875C248.16 66.4882 249.005 66.1902 249.485 65.9915L248.972 65.5776C248.823 65.4617 248.657 65.3458 248.458 65.2631L248.292 65.1803C248.06 65.1306 247.994 64.9982 248.16 64.8657C248.325 64.7333 248.74 64.2201 248.59 64.1538C248.441 64.0876 247.812 64.1538 247.546 64.4187C247.281 64.6836 246.701 66.2564 246.303 66.3226C245.906 66.3889 244.779 66.4882 244.895 66.3226C245.011 66.1571 245.177 65.5445 245.127 65.3293L244.994 65.2796C244.845 65.23 244.497 65.2796 244.431 65.3955L244.166 65.7929C243.95 66.2564 243.387 66.5213 242.889 66.4054H242.442C242.343 66.3723 242.127 66.7034 242.111 66.9021V67.0676C242.243 67.2663 242.111 67.3822 241.812 67.3325L241.613 67.2167L241.315 67.0511C241.033 66.8028 240.967 66.5213 241.166 66.422C241.365 66.3226 241.68 65.6935 241.746 65.2796L241.63 64.9485L241.497 64.6008C241.663 64.3194 241.812 64.0379 241.796 63.9717C241.779 63.9055 242.127 63.5578 242.508 63.2102C242.889 62.8625 244.712 61.8691 245.276 61.5049C245.839 61.1407 247.381 60.2632 247.48 60.346V60.4288L247.381 60.793C247.265 61.1738 247.298 61.3559 247.447 61.1903C247.596 61.0248 248.325 60.793 248.441 60.7433C248.557 60.6937 249.237 60.5778 249.734 60.6606V59.3858C250.231 58.7898 250.728 58.2269 250.861 58.1275C250.994 58.0282 250.944 57.8957 250.828 57.9289C250.712 57.962 250.065 57.9785 249.734 58.0282C249.403 58.0779 248.988 58.9388 248.673 59.0712L248.607 59.005L247.745 58.2931L247.828 58.2269ZM245.044 64.3194C244.845 64.3856 244.232 64.4518 243.702 64.4684L243.337 64.4353L242.724 64.3856C242.459 64.7664 242.326 65.1968 242.425 65.3624C242.525 65.528 243.072 65.7266 243.37 65.4783C243.668 65.23 244.215 63.5082 244.315 63.9386C244.414 64.3691 245.243 64.2366 245.044 64.3028V64.3194ZM97.3811 67.2332C95.5416 68.2266 95.5416 68.4915 97.2651 69.2365C97.2983 68.6239 97.3314 68.061 97.3811 67.2332Z" fill="#8CC1B7"/>
<path d="M218.412 99.4675C218.18 99.4509 217.682 99.2853 217.301 99.0867C216.92 98.888 215.677 98.4575 215.329 98.5238C214.981 98.59 214.285 99.2026 214.119 99.2688C213.953 99.335 212.396 99.7489 212.296 100.08L212.611 100.13C212.727 100.146 212.926 99.7489 213.125 99.5668L213.373 99.335C213.688 99.1032 213.755 98.7721 213.523 98.6231C213.291 98.4741 212.396 99.0039 212.213 99.1198C212.031 99.2357 212.628 99.7158 212.843 99.9807C213.059 100.246 213.241 100.643 212.263 100.51C211.285 100.378 209.545 98.9377 209.462 98.8052C209.379 98.6728 208.816 98.4079 208.485 98.4741L208.717 98.0437L208.949 97.5966C209.197 97.0172 209.131 96.5371 208.833 96.5205H208.567L207.772 96.6033C207.457 96.0901 206.811 94.6166 206.33 93.3087L205.866 92.1332L205.783 91.9346C205.667 91.8021 205.849 91.4876 206.214 91.2227C206.579 90.9578 207.358 90.1631 207.175 90.0141C206.993 89.8651 207.822 89.4015 208.17 89.2525L208.468 89.1201H208.518C208.534 89.0373 208.617 88.7227 208.7 88.4082C208.783 88.0936 209.645 87.1665 209.877 86.9016C210.109 86.6367 210.573 85.7758 210.49 85.6434V85.1301C210.954 85.1301 211.898 85.0473 212.578 84.9646L212.545 84.5341V84.3189C212.031 84.054 211.816 83.756 212.064 83.6567C212.313 83.5573 213.092 83.3587 213.208 83.2924C213.324 83.2262 213.307 82.8123 213.539 82.6799L213.705 82.713L214.053 82.7792C214.534 82.8123 214.732 82.564 214.484 82.2163C214.235 81.8686 213.788 81.0408 214.053 81.1733C214.318 81.3057 215.329 81.3389 215.528 81.0077L215.71 80.7097C215.826 80.5276 215.876 80.2462 216.058 80.1634L216.373 80.0144C216.738 79.8819 216.986 79.6667 216.937 79.5508C216.887 79.4349 216.903 78.9879 217.351 79.2197C217.798 79.4515 218.478 80.0972 218.097 80.2627L218.014 80.4945L217.948 80.6932C217.649 80.8918 217.003 81.3885 216.522 81.8355L216.638 82.2991C216.671 82.4481 216.804 82.6633 216.937 82.6799L217.102 82.713C217.334 82.6136 217.964 82.3819 218.494 82.1832L218.428 81.5872L218.329 80.7428C217.583 80.8753 216.887 80.9581 216.787 80.925C216.688 80.8918 217.832 81.0243 218.345 81.0408C218.859 81.0574 219.456 81.7196 219.621 81.7859C219.787 81.8521 220.119 82.4646 219.986 83.0938L219.025 83.1269H218.958C218.909 83.4745 218.66 83.9216 218.395 84.1202C218.13 84.3189 216.821 84.4513 216.489 84.4182C216.158 84.3851 215.462 84.8156 215.428 84.7825C215.395 84.7493 215.312 84.5672 215.279 84.4182C215.246 84.2692 214.716 83.7394 214.119 83.756L213.987 83.9381C213.655 84.4182 214.268 84.4348 214.65 84.5507L214.766 84.5838C214.799 84.8321 214.567 85.097 214.268 85.1798L214.053 85.1136L213.009 84.8321C212.777 85.4281 212.744 85.9414 212.909 85.9414C213.075 85.9414 213.622 85.8751 213.804 85.8255C213.987 85.7758 214.998 85.6102 215.644 85.5275L216.456 86.3056C216.903 86.736 217.318 87.1003 216.903 87.6963L216.754 87.9115C216.671 88.1764 217.102 88.1433 217.715 87.8287L217.914 87.4314C218.03 87.1996 217.666 86.8188 217.517 86.5043L217.367 86.1897C217.202 85.842 217.334 85.6434 217.666 85.7261C217.997 85.8089 218.677 86.1566 218.61 86.3387C218.544 86.5208 218.594 86.8519 218.842 86.7857C219.091 86.7195 219.373 86.0573 219.472 85.544C219.572 85.0308 219.273 83.8719 219.754 84.0043C220.235 84.1368 221.693 84.4348 221.444 84.2196C221.196 84.0043 221.262 83.3752 221.892 83.0772L222.19 82.6633L222.488 82.266C222.886 81.8852 222.853 81.5872 222.389 81.5872C221.925 81.5872 220.384 81.4879 220.036 81.3554C219.688 81.223 219.041 80.5773 219.19 80.5442C219.34 80.5111 219.588 80.0641 219.422 79.6833C219.257 79.3025 218.08 78.8389 218.312 78.7396C218.544 78.6403 219.207 78.4913 219.257 78.6237L219.356 78.7396C219.456 78.8555 219.621 79.021 219.771 79.0376C219.92 79.0376 220.218 78.8886 220.218 78.7893L220.268 78.3091C220.268 77.8125 220.317 77.3324 220.417 77.233H220.467C220.467 77.233 220.566 77.3158 220.632 77.3489C220.682 77.3986 220.781 77.4813 220.781 77.4648C221.096 77.2827 221.428 77.1006 221.743 76.9019L222.207 76.6039C221.942 76.2893 221.726 75.9251 221.743 75.7927H221.809C221.942 75.7264 222.157 75.6933 222.223 75.7595C222.356 75.8754 222.422 76.041 222.488 76.19L222.671 76.5873C223.019 76.4549 223.499 76.1072 223.748 75.8092C223.997 75.5112 224.51 74.5841 224.411 74.3192L224.361 74.0543C224.361 74.0543 224.842 73.8722 224.908 73.9219L225.637 74.5344C225.886 74.0046 226.151 73.359 226.25 73.0941C226.35 72.8292 226.913 72.1504 227.295 72.2332C227.676 72.3159 228.703 72.3159 228.753 72.1007C228.803 71.8855 229.018 71.3391 229.118 71.5213C229.217 71.7034 229.764 72.0842 230.095 71.9848L230.211 71.8193L230.742 71.0577C231.587 71.2564 232.299 71.5213 232.349 71.6372C232.399 71.753 232.88 72.0676 233.228 71.9186C233.576 71.7696 234.537 71.1405 234.669 70.9087L234.62 70.8756L234.421 70.7431C234.139 70.6769 233.791 70.71 233.642 70.8094C233.493 70.9087 232.83 70.9915 232.581 70.4948L232.2 70.2961L231.819 70.114C230.907 70.1471 230.659 70.0975 231.272 69.9981C231.885 69.8988 232.15 68.8889 232.299 68.9054C232.449 68.922 232.764 68.9717 232.697 69.0379C232.631 69.1041 232.647 69.4021 232.863 69.5014C233.078 69.6008 233.791 70.114 234.006 70.3458L234.255 70.0147L234.371 69.8657C234.404 69.667 234.371 69.4021 234.288 69.2697C234.205 69.1372 234.636 68.6406 234.819 68.5081C235.001 68.3757 234.819 67.3823 235.034 67.3657C235.249 67.3492 236.028 67.4982 235.912 67.7465C235.796 67.9949 235.614 68.624 235.713 68.6571C235.813 68.6902 236.095 68.4253 236.31 68.1439C236.526 67.8624 237.652 66.9519 238.183 66.985L238.663 67.1671C239.045 67.2995 239.293 67.4485 239.575 67.134C239.641 67.0512 239.641 66.8525 239.575 66.7863L239.343 66.6042C239.061 66.4717 238.68 66.3062 238.498 66.24C238.315 66.1737 238.133 65.9254 238.481 65.7433L238.663 65.5115L238.73 65.4122C238.481 65.1307 238.763 64.8989 239.359 64.8658C239.956 64.8327 241.216 63.9221 241.862 64.2202L241.116 64.7831C240.967 64.8989 240.619 64.9817 240.503 64.9155L240.155 64.7334C239.857 64.8658 239.393 65.3128 239.144 65.7598L239.79 66.2565L240.569 66.8691C240.453 67.4651 239.558 67.5975 238.564 67.1671L238.067 68.3591C238.067 68.3591 237.785 68.3591 237.652 68.4088L236.758 68.6405C237.188 69.1207 237.768 69.3524 238.034 69.1372C238.299 68.922 239.227 68.4419 239.509 68.5578C239.79 68.6737 240.138 69.0544 239.658 69.1538C239.177 69.2531 238.597 71.008 238.481 71.3723V71.7034C238.481 71.9186 238.663 72.2001 238.879 72.3159L239.011 72.3987C239.326 72.2994 239.757 71.902 239.989 71.5047L240.453 71.306C240.652 71.2233 240.95 70.9915 240.917 70.8921L240.718 70.0809C240.636 69.2034 240.669 68.475 240.785 68.4584C240.901 68.4419 241.315 68.5412 241.431 68.7068C241.547 68.8723 241.895 69.4021 241.961 69.5014C242.028 69.6008 242.475 69.7829 242.807 69.6836L242.906 69.518L243.254 68.922C243.635 68.028 244.248 67.6141 244.58 67.9783C244.911 68.3425 244.828 69.5015 244.63 69.518C244.431 69.5346 243.022 70.6107 243.403 70.6272L243.685 70.5941L244.116 70.5445C244.679 70.4286 245.011 70.5445 244.862 70.7928C244.712 71.0411 244.199 71.7199 244.149 71.5709C244.099 71.4219 243.652 71.2233 243.204 71.3391L242.823 71.5047C242.823 71.5047 242.923 71.902 242.989 72.1007L243.055 72.2994C243.188 72.6139 242.956 72.7795 242.558 72.6802C242.16 72.5808 241.232 72.8457 241.017 73.061C240.801 73.2762 239.741 73.8556 239.21 73.7894C238.68 73.7232 237.205 74.0709 237.039 73.8556C236.874 73.6404 236.592 72.8954 236.923 72.8623L237.122 72.8126C237.371 72.7464 237.619 72.6636 237.802 72.5312L237.851 72.4815C237.702 72.2663 237.338 71.9517 237.056 71.7862C236.774 71.6206 236.161 71.1239 236.227 70.9418C236.293 70.7597 236.277 70.3127 235.912 70.5114C235.548 70.71 235.1 71.902 235.249 72.3159L235.283 72.6967V72.8788C235.283 73.061 235.084 73.3258 234.868 73.4583L234.819 73.4252L234.603 73.2927C234.437 73.0941 234.288 72.8126 234.272 72.6471C234.255 72.4815 233.89 72.1669 233.808 72.2332C233.725 72.2994 233.393 72.5477 233.277 72.6305C233.161 72.7133 231.951 72.9451 231.885 73.1106L231.935 73.3093L231.968 73.4748C231.835 73.6901 231.67 73.806 231.587 73.7563C231.504 73.7066 231.106 73.7232 231.106 74.0709C231.106 74.4185 230.742 75.3125 230.311 75.3622C229.88 75.4119 228.67 74.7 228.289 74.4847L227.891 74.8324L227.841 74.8655C227.609 74.7662 227.361 74.5675 227.278 74.4185C227.195 74.2695 226.814 74.7828 227.062 75.2298L227.692 75.3291C228.305 75.4284 228.919 75.5609 229.515 75.6933H229.598C229.598 75.6933 229.482 75.9582 229.3 76.1403C229.118 76.3224 228.405 76.5211 227.808 76.488L227.543 76.6204L227.295 76.7529C227.179 77.084 226.698 77.5641 226.217 77.8125L225.67 77.6469L225.571 77.6138C225.405 77.6138 225.273 77.7959 225.289 78.0608C225.306 78.3257 225.687 79.0873 226.085 78.9051C226.482 78.723 227.941 78.2926 228.14 78.4581C228.339 78.6237 228.919 78.9217 229.051 78.8058C229.184 78.6899 229.499 78.2264 229.35 78.0608C229.2 77.8952 228.836 77.3323 228.952 77.2827C229.068 77.233 229.615 77.2165 230.162 77.233L230.642 77.1337L231.438 76.9681C231.139 78.3091 230.858 79.8985 230.808 80.4945C230.758 81.0905 231.421 80.6104 231.769 80.1634C232.117 79.7164 233.94 79.3025 234.122 79.2694L234.156 79.2031C234.222 79.0541 234.238 78.7561 234.189 78.7396C233.857 78.6568 233.443 78.7065 233.178 78.574C232.88 78.425 232.714 78.0939 232.449 77.8787C232.415 77.8456 232.034 77.9946 232.034 78.0442V78.3919C231.719 78.5244 231.289 78.8058 231.09 79.021L231.156 79.1369C231.305 79.3687 231.703 79.4846 231.239 79.7992L230.725 80.1303C230.825 79.7329 231.057 78.8886 231.272 78.2595C231.487 77.6303 232.117 76.5873 232.498 76.2893L232.896 76.0575C232.996 76.0079 233.228 76.0907 233.327 76.041C233.526 75.9251 233.642 75.743 233.824 75.6271L234.553 75.1635C235.001 74.4516 235.68 73.9384 236.045 74.0046C236.41 74.0709 237.768 74.4185 238.216 74.6338L237.553 75.0642L237.387 75.1801C237.536 75.6437 237.619 76.0244 237.586 76.0244C237.553 76.0244 237.006 75.9582 236.476 75.8589L236.509 76.4549C236.542 76.9184 237.023 76.7529 237.338 76.7694H238C238.895 76.1238 239.774 75.445 239.973 75.2298C240.172 75.0145 240.884 75.1635 240.752 75.4284C240.619 75.6933 240.138 77.3986 240.155 77.7131C240.172 78.0277 240.503 78.0442 240.718 77.8787C240.934 77.7131 241.083 76.8522 240.851 76.4383H240.801L240.172 76.6536C239.542 76.9516 238.796 77.3158 238.481 77.4813C238.166 77.6469 237.437 78.2595 237.57 78.4747C237.702 78.6899 238.183 79.2694 238.249 79.1204C238.315 78.9714 238.564 78.6734 238.68 78.723C238.796 78.7727 239.161 78.8224 239.194 78.6237C239.227 78.425 240.553 77.1171 241.033 77.0343C241.514 76.9516 242.956 76.2066 243.271 75.892C243.585 75.5774 244.928 75.5278 244.961 75.3953C244.994 75.2629 245.326 74.8159 245.641 74.6503C245.955 74.4847 246.635 73.9053 246.436 73.7397C246.237 73.5742 245.641 73.2596 245.591 73.4252C245.541 73.5907 245.259 73.9219 245.127 74.1371C244.994 74.3523 244.878 74.9483 244.663 74.9318C244.447 74.9152 243.768 74.4847 243.569 74.3523C243.37 74.2199 242.956 73.6404 243.121 73.3921C243.287 73.1437 244.298 73.1934 244.878 73.2265L245.027 72.8126C245.16 72.4484 244.911 71.9352 245.773 71.9848H245.972C246.204 71.9186 246.602 71.902 246.85 71.9517C247.099 72.0014 247.762 72.4318 247.546 72.7133H247.364C246.834 72.7795 246.701 73.0775 246.933 73.3093C247.099 73.4748 247.629 73.5245 247.928 73.4583L248.358 73.3424C248.375 72.5974 248.325 71.7861 248.242 71.5378L248.06 71.3888L247.894 71.2564C247.364 71.1074 247.364 70.9915 247.911 71.008C248.458 71.0246 249.386 72.0676 249.833 72.2663L250.065 72.6139C250.132 72.7133 250.513 72.7961 250.645 72.7298C251.192 72.4649 251.706 72.1504 252.203 71.8358C252.286 71.7861 252.27 71.5875 252.203 71.4882C252.154 71.4054 251.971 71.2729 251.888 71.2895L251.458 71.4054C250.844 71.604 250.48 71.5709 250.612 71.3226C250.745 71.0743 251.226 70.7266 251.408 70.9253C251.59 71.1239 252.468 70.4286 252.783 70.1968C253.098 69.965 254.374 69.5346 254.905 69.5842L255.385 69.6505H255.485C255.601 69.6836 256.28 69.3856 256.976 68.9882L257.49 68.5412L257.788 68.2763C257.672 67.73 257.855 67.2333 258.169 67.1505C258.484 67.0677 259.744 66.9519 260.258 66.8525C260.771 66.7532 261.02 65.6605 260.854 65.5115L260.042 66.0744C259.744 65.5115 259.462 65.2135 259.429 65.3956C259.396 65.5777 259.015 66.1737 258.716 66.1737C258.418 66.1737 257.623 66.3227 257.805 66.5048C257.987 66.687 257.258 67.3326 256.827 67.3823L256.794 67.4982C256.744 67.7134 257.125 68.1108 257.026 68.2101C256.595 68.624 256.33 68.1604 255.982 67.9949L255.816 67.9121C255.551 67.9452 255.468 67.8293 255.617 67.6638C255.766 67.4982 255.982 67.0181 255.833 66.8856C255.684 66.7532 255.452 66.0247 255.617 65.5281L256.363 66.0413C256.496 66.1241 256.943 66.0744 257.092 65.9585C257.324 65.7764 257.391 65.4618 257.606 65.2466L257.656 65.1969C257.954 65.2963 258.269 65.1638 258.352 64.8824L258.468 64.634L258.899 63.7897C259.711 64.2201 260.457 64.6009 260.556 64.634C260.655 64.6672 261.136 64.1539 261.318 63.4586L260.589 62.9288L260.374 62.7632C260.307 62.4156 260.606 62.3659 261.02 62.6474L261.434 62.8295L261.567 62.8957C261.832 62.8791 262.081 62.9619 262.097 63.0944C262.114 63.2268 262.512 63.4751 262.86 63.1275L262.926 62.8626L263.141 62.0513C263.522 61.7037 264.069 61.4057 264.351 61.4057C264.633 61.4057 265.395 61.207 265.395 60.9421C265.395 60.6772 265.528 59.9653 265.892 60.0978C266.257 60.2302 267.599 60.3461 268.03 60.0646C268.461 59.7832 267.997 58.4091 268.097 58.2766C268.196 58.1442 268.378 58.0448 268.312 58.2435C268.246 58.4422 269.621 58.0945 270.036 57.7799C270.45 57.4654 271.975 58.0283 272.289 57.9455L272.339 57.8131L272.455 57.4488C272.82 57.3826 273.284 57.1839 273.499 57.0018C273.715 56.8197 273.947 56.3561 273.532 56.3561C273.118 56.3561 272.455 56.2237 272.869 56.1409C273.284 56.0581 273.847 55.3959 273.996 55.6277C274.146 55.8595 274.941 56.2403 275.256 56.2403C275.571 56.2403 276.366 55.876 275.902 55.429C275.438 54.982 275.19 53.1112 275.902 52.3165L276.582 51.6046C276.582 51.6046 276.863 51.5384 276.996 51.5715H277.095C277.178 51.6874 277.294 52.1841 277.344 52.6808L277.294 53.1278V53.2933C277.245 53.6244 276.996 53.5251 276.747 53.0781H276.532L276.267 53.0284C275.935 53.2602 275.637 53.5251 275.604 53.6244C275.571 53.7238 275.67 54.0549 275.869 54.1873C276.068 54.3198 276.598 55.0979 277.112 55.4125L277.626 54.8661C277.626 54.8661 278.106 55.0317 278.338 55.1641C278.587 55.28 278.802 55.5615 279.018 55.5615H279.482C279.979 55.429 280.244 55.2635 280.062 55.1476C279.88 55.0317 279.068 54.7833 278.736 54.7006C278.405 54.6178 277.51 54.2039 277.659 54.0052L277.725 53.79L277.792 53.5748C277.758 53.2933 277.908 53.1278 278.106 53.2271C278.305 53.3264 278.902 53.2933 279.084 53.2105C279.267 53.1278 279.83 52.9291 279.996 52.7635C280.161 52.598 280.211 51.9523 279.731 52.1013C279.25 52.2503 277.957 52.5483 277.792 52.5318C277.792 52.3496 277.792 52.1675 277.891 52.0351C277.924 51.9689 278.156 51.9854 278.289 51.9523L279.217 51.7371C279.035 51.2901 278.952 50.6941 279.035 50.4292L279.233 50.5285L279.615 50.7106C279.946 50.6113 280.244 50.6444 280.261 50.81C280.277 50.9755 280.675 51.7702 280.957 52.2834C281.239 52.7966 281.968 54.4357 282.167 54.7502L282.448 54.8496C282.73 54.9489 283.145 54.8165 283.493 54.7502C283.542 54.7502 283.592 54.535 283.575 54.4357C283.443 53.9887 282.995 54.2039 282.664 54.1542H282.598C282.598 54.1542 282.448 53.7403 282.432 53.2602C282.415 52.7801 283.194 51.555 283.277 51.4887C283.36 51.4225 284.387 51.2238 285.365 51.2073L285.829 50.3961C286.028 50.0484 286.36 50.0981 286.708 50.3298L287.487 50.8431C288.017 50.3629 288.232 49.8994 287.967 49.7835C287.702 49.6676 286.873 49.6014 286.757 49.8C286.641 49.9987 286.442 49.3034 286.592 49.1047L286.791 49.0716L287.387 48.9888C287.835 48.6577 288.315 48.4259 288.431 48.4425L288.514 48.4921L289.26 48.9723C289.575 48.5749 290.022 48.2107 290.238 48.161C290.453 48.1114 291.232 48.012 291.514 47.6478C291.795 47.2836 292.773 46.4889 292.624 46.2406C292.475 45.9922 292.094 45.1644 292.044 44.9989C291.994 44.8333 292.541 44.8167 292.508 44.9658L292.574 45.032L292.84 45.2472C293.154 45.4459 293.436 45.7935 293.469 46.0253C293.502 46.2571 293.701 46.8862 293.801 46.9524C293.9 47.0187 294.397 46.7869 294.745 46.2406C295.093 45.6942 296.038 44.4029 296.154 44.5022C296.27 44.6015 296.519 44.9161 296.452 44.9823C296.386 45.0485 296.27 45.3134 296.419 45.4128H296.519C296.701 45.3797 297.016 45.2803 297.032 45.1975L297.082 44.8002C297.066 44.3863 296.552 43.8896 295.955 43.7075C295.359 43.5254 294.315 45.1644 294.281 45.2141C294.248 45.2638 293.884 45.33 293.668 45.0816C293.453 44.8333 292.558 44.5684 292.574 44.3863C292.591 44.2042 292.508 43.691 292.458 43.6082C292.409 43.5254 292.409 43.2771 292.558 43.2771C292.707 43.2771 293.453 43.84 293.95 44.0717L294.348 43.4923L294.812 42.8135C295.856 42.4162 296.568 42.2672 296.37 42.4493C296.171 42.6314 295.972 43.2274 296.452 43.2274H296.8L297.231 43.1777C297.397 43.4426 297.695 43.7075 297.878 43.7737C298.06 43.84 298.789 43.7737 298.789 43.4261C298.789 43.0784 298.922 42.1513 299.071 42.1513C299.22 42.1513 299.502 42.2672 299.435 42.4162V42.7638C299.485 42.9956 299.336 43.4426 299.121 43.7572L299.518 43.9062L299.784 44.0055C300.214 43.8896 300.446 43.5751 300.33 43.3102L300.231 43.0618V43.0287C300.231 43.0287 300.364 42.8963 300.43 42.8466H300.48L300.927 42.9459C301.424 43.0618 301.839 42.9459 301.855 42.7307L301.789 42.5321L301.723 42.3334C301.689 42.0188 301.822 41.8698 302.004 42.0023C302.187 42.1347 302.899 42.3499 303.065 42.1182C303.231 41.8864 303.264 41.4063 303.264 41.1579C303.264 40.9096 304.159 40.6612 304.706 40.6447C305.253 40.6281 305.717 39.3533 305.899 39.2209H306.048C306.197 39.2374 306.379 39.4196 306.429 39.5354C306.495 39.701 306.379 39.9162 306.462 40.0652C306.529 40.1811 306.86 40.3136 306.96 40.2805L307.374 40.1149C307.772 39.8831 308.236 39.6513 308.418 39.6017C308.6 39.552 309.015 39.3533 308.849 39.2871C308.683 39.2209 308.302 38.9726 308.368 38.8732C308.435 38.7739 309.131 38.5255 309.694 38.3765C310.257 38.2275 311.815 37.5819 312.246 37.6978L312.627 37.7309L313.39 37.7805C313.274 37.3335 313.274 36.7541 313.39 36.4892C313.506 36.2243 314.467 36.5223 314.666 36.3898L314.782 36.2408C315.08 35.8435 315.196 35.0985 316.058 35.8601C316.141 35.9263 316.688 35.7938 316.737 35.6945C317.036 34.9329 317.384 34.4694 318.395 35.1813L318.478 35.2475C318.826 35.0654 319.787 34.5025 320.582 33.9893L321.311 33.5257C321.427 33.4595 321.858 33.029 321.858 32.9794V32.8966C321.858 32.7972 321.991 32.4992 322.173 32.2343C322.356 31.9694 323.366 31.7873 323.267 32.0853V32.3171C323.267 32.4827 323.35 32.6813 323.466 32.8304C323.731 33.178 324.029 32.88 324.079 32.731L324.377 31.7046C325.504 31.4397 327.261 30.7443 328.272 30.1649L329.465 30.1152C329.581 30.1152 329.697 29.8834 329.78 29.7344L330.178 29.0556C330.576 29.453 331.023 29.5026 331.172 29.155C331.321 28.8073 333.36 28.3272 334.354 27.9298L334.702 27.549C334.918 27.3173 335.133 27.0689 335.382 26.8703L335.448 26.804C335.73 26.8372 335.895 27.0027 335.813 27.1848C335.73 27.3669 335.879 27.7808 336.326 27.5987C336.774 27.4166 338.133 26.8206 338.481 26.6054C338.829 26.3901 340.055 25.7445 340.569 25.7445C341.083 25.7445 342.193 25.1319 342.873 25.6617L341.978 26.3901H341.945C342.276 26.7378 342.657 26.5888 342.806 26.0921C342.955 25.5955 343.585 24.4697 343.9 24.6187C344.215 24.7677 344.795 25.3471 344.828 24.8339L345.69 25.016C345.872 25.0491 346.137 24.8505 346.336 24.718C346.386 24.6849 346.336 24.4697 346.237 24.4034C345.856 24.1386 345.574 24.3538 345.325 24.5856L345.292 24.6187C345.093 24.6518 345.027 24.4366 345.16 24.1717C345.292 23.9068 345.723 23.3108 345.856 23.4101C345.988 23.5094 346.469 23.3439 346.651 23.079C346.833 22.8141 348.192 22.4002 348.491 21.8704H349.601C349.916 22.3671 350.281 22.7148 350.413 22.6485V22.6154C349.966 21.7214 351.126 21.4234 351.391 20.7943V20.7446C351.49 20.7115 351.938 20.5625 352.435 20.4135L352.982 20.6453C353.695 20.9433 353.86 20.4135 354.192 20.0162C354.424 19.7347 355.219 20.1817 355.451 19.387C355.634 18.7414 356.76 18.6586 357.44 18.8241C357.887 18.9235 358.07 19.0063 358.037 19.387L358.003 19.6685C358.003 20.1155 358.335 20.2811 358.733 20.0327L358.782 19.8506L358.965 19.2546C358.501 18.7414 358.716 18.0295 359.445 17.6652L360.125 17.3176C360.307 17.2348 360.506 17.0196 360.639 17.0361C362.511 17.3341 363.191 15.662 364.715 15.3805H364.815C364.898 14.9832 365.014 14.8011 365.097 14.9832C365.179 15.1653 365.925 15.4468 366.538 15.2315C367.152 15.0163 368.196 13.8574 368.279 13.9567L368.328 14.0561L368.378 14.1554C368.444 14.3375 368.726 14.3044 369.008 14.0726L369.24 13.8905C369.455 13.725 369.637 13.5263 369.886 13.3938L369.936 13.3607C370.168 13.5594 370.416 13.4932 370.499 13.2283L370.698 13.1124L370.847 13.0296C371.162 13.1124 371.56 13.2448 371.726 13.3111C371.891 13.3773 372.886 12.8806 373.532 12.4998C374.178 12.119 375.968 11.3575 376.499 11.1257L376.979 10.8939C377.161 10.7946 377.394 10.5131 377.443 10.5297L377.94 10.7449C378.487 10.7118 379.117 10.3807 379.333 9.9999L379.979 10.0827C380.178 10.1158 380.741 10.2317 381.006 10.3641L381.156 10.4469C381.404 10.4469 381.586 10.3641 381.553 10.2979C381.52 10.2317 381.388 9.90057 381.305 9.7019H381.951C382.2 9.7019 382.481 9.586 382.713 9.48667C383.028 9.35422 383.293 9.15555 383.592 9.00655H383.641C383.757 9.00655 383.807 9.17211 383.757 9.35422C383.708 9.53634 383.608 10.033 383.691 10.0827C383.774 10.1323 384.089 10.0827 384.205 9.83434L384.354 9.63567L385.216 8.50988C386.243 8.67544 387.337 8.70855 387.685 8.5761L387.867 8.69199C388.05 8.80788 388.033 9.18867 388.215 9.27144L388.514 9.38734C388.961 9.38734 389.326 9.17211 389.326 8.92377C389.326 8.67544 389.094 7.94698 388.796 7.91387C388.497 7.88076 387.702 7.73175 387.735 7.58275L387.801 7.54964L388.099 7.40064C388.431 7.28475 388.978 7.28475 389.342 7.40064C389.707 7.51653 390.851 7.35097 391.033 7.31786L391.182 7.35097C391.977 7.51653 392.276 7.89731 392.044 8.46021C392.011 8.55955 391.762 8.62577 391.745 8.7251V8.92377C391.779 9.15555 392.06 9.288 392.359 9.20522L392.508 9.05622L393.104 8.49332C394.016 8.7251 394.778 8.95688 394.795 9.02311C394.811 9.08933 395.292 9.00655 395.789 8.65888H396.253L396.933 8.60921C397.695 8.79133 398.375 9.17211 398.441 9.45356C398.507 9.73501 399.518 9.78467 399.568 9.90057C399.618 10.0165 399.618 10.7449 399.501 11.2416L400.396 11.1754C400.43 11.5065 400.264 12.268 400.032 12.8806L400.529 13.5428C400.778 13.874 401.59 14.5196 400.612 15.0494C400.579 15.066 400.761 15.3474 400.811 15.513C400.877 15.7117 400.91 15.9269 400.96 16.1421L401.043 17.7315L401.308 18.3771C401.59 19.089 401.838 19.983 401.838 20.3804C401.838 20.7777 402.866 21.6883 402.965 21.9035C403.065 22.1187 403.065 22.7479 402.833 22.7644L402.65 22.8306C402.269 22.9796 401.871 23.1121 401.573 23.3439C401.424 23.4432 402.418 23.8406 401.407 23.9564L401.109 23.9896C400.811 24.271 400.446 24.6187 400.28 24.7677C400.115 24.9167 399.651 25.4796 399.584 25.7114L399.452 25.7445L398.955 25.8935C398.375 25.9266 397.645 26.3074 397.33 26.7544L396.933 27.0689L396.485 27.4166C395.872 27.7146 394.944 28.1616 394.43 28.4265C393.917 28.6914 391.779 29.8669 390.817 30.4298L389.956 30.943L389.889 30.9761C389.889 30.9761 389.376 31.0258 388.878 30.9761C388.381 30.9264 387.304 32.0191 387.006 32.2343C386.707 32.4496 385.282 33.2442 384.536 33.5257C383.791 33.8071 382.067 35.0654 381.918 35.115C381.769 35.1647 381.205 35.2475 380.957 35.3137C380.708 35.3799 380.012 36.0091 379.763 36.1746C379.515 36.3402 378.819 36.4561 378.835 37.168H377.493C377.211 37.2673 377.029 37.2673 377.079 37.168C377.128 37.0686 377.128 36.7872 376.996 36.721C376.863 36.6547 376.432 36.7375 376.117 36.8369C375.803 36.9362 375.919 38.1944 375.405 39.0057L374.394 39.1381L373.598 39.2374C373.018 39.6182 372.206 40.0156 371.809 40.1149C371.411 40.2142 370.731 40.7275 370.267 41.0586L369.903 41.3069L369.372 41.6546C368.759 42.0354 368.113 42.3168 367.947 42.2672L367.781 42.234L367.582 42.2009C367.367 42.1678 366.853 42.383 366.456 42.6811C366.058 42.9791 364.881 44.1214 364.417 44.3366C363.953 44.5519 362.677 45.0982 362.66 45.1479C362.644 45.1975 362.959 45.2969 363.423 45.2472C363.887 45.1975 365.345 44.8995 365.677 44.734L365.975 44.585L367.251 43.9393C367.649 44.0386 368.047 44.1876 368.461 44.1876C368.627 44.1876 368.726 43.7737 368.941 43.6578C369.273 43.4592 369.671 43.2605 370.052 43.2439H370.814C371.593 42.9956 372.239 42.3996 372.273 41.8864L372.886 42.1513L373.913 42.6148C374.096 41.9526 374.46 41.4063 374.725 41.4063C374.99 41.4063 375.968 41.3731 376.283 41.34V41.2904L376.366 40.5288C377.112 40.5122 377.974 40.446 378.272 40.3964C378.57 40.3467 379.515 39.9493 379.797 39.8997C380.078 39.85 381.255 39.85 381.702 39.7672C382.15 39.6845 383.128 38.807 383.376 38.4262L383.989 38.807H384.023C384.42 38.4593 384.785 38.2275 384.835 38.3434C384.884 38.4593 385.282 38.4924 385.58 38.0454L385.962 37.8468C386.293 37.6812 386.807 37.764 387.254 37.7474H387.884C388.315 37.3666 388.862 37.0686 389.077 37.0686L389.276 37.1017C389.442 37.1349 389.591 37.2673 389.757 37.2673C390.171 37.2673 390.121 36.3567 390.9 36.9031L391.049 37.019C391.563 36.8203 392.342 36.4561 392.806 36.2243L393.171 35.9594C393.651 35.5952 393.95 36.6216 394.414 36.0422L394.712 35.6779C395.159 35.7938 396.071 36.0256 396.75 36.2243L396.966 35.4462L396.999 35.3468C397.148 35.2806 397.745 35.0985 398.308 34.9495C398.872 34.8005 400.43 34.5356 400.529 34.6846C400.628 34.8336 400.96 35.1647 400.993 34.9495C401.026 34.7343 401.673 34.3369 402.319 34.4859L402.717 34.3535C403.164 34.4363 403.562 34.5356 403.628 34.5687C403.694 34.6018 404.059 34.8502 404.424 34.9826C404.788 35.115 405.219 36.274 405.285 36.5057C405.352 36.7375 407.175 36.7375 407.838 36.7872C408.5 36.8369 410.688 37.2673 411.235 37.5322C411.782 37.7971 412.71 39.4858 412.959 39.8831L412.097 39.9659C411.997 39.9659 411.848 40.3798 411.914 40.5288L412.014 40.7606C411.898 40.9261 411.649 41.191 411.484 41.34C411.318 41.489 411.832 41.8864 412.014 42.085C412.196 42.2837 411.848 43.0618 411.55 43.4261L412.395 43.6247L413.058 43.7737C412.843 44.287 412.528 45.032 412.378 45.4128C412.229 45.7935 412.246 47.1842 411.666 47.6312L412.992 47.6643H413.058C413.108 47.8299 413.174 48.2769 413.207 48.6908C413.24 49.1047 413.406 50.2802 413.456 50.4457L413.389 50.5285L412.843 51.1245C413.34 51.555 414.003 52.1675 414.318 52.4655C414.632 52.7635 412.909 54.088 412.246 54.4026L411.633 54.6509C410.92 54.9489 410.506 55.7767 410.075 56.4389C409.793 56.8694 410.323 57.2667 410.837 56.9356C411.45 56.5548 411.633 57.4488 412.113 57.068C412.511 56.7535 412.793 56.2899 413.555 56.3396L414.036 56.3727C414.583 56.2568 415.362 56.2734 415.776 56.3893L416.091 56.323C416.406 56.2568 416.588 55.8595 416.903 55.727L417.201 55.6111C417.615 55.6111 418.345 55.7767 418.792 55.9423C419.24 56.1078 420.632 55.6442 420.797 55.6774C420.963 55.7105 421.775 55.9754 422.388 56.1409C423.002 56.3065 424.891 55.8098 425.255 56.0085C425.62 56.2071 426.88 56.6707 427.062 56.5217C427.244 56.3727 427.841 56.2071 428.056 56.3727C428.272 56.5383 428.752 56.9687 428.719 57.0018C428.686 57.0349 427.791 57.0515 426.88 57.0349L426.068 57.1012L425.637 57.1343C425.222 57.4985 425.637 57.8793 426.548 57.9621L427.261 57.7634C427.973 57.5647 428.471 58.4918 429.183 57.8296L429.448 57.5813C430.062 57.6972 430.675 57.8627 430.807 57.9289C430.94 57.9952 431.189 58.2932 431.321 58.3925C431.454 58.4918 432.133 58.3594 432.415 58.2435C432.697 58.1276 433.575 58.0283 433.724 58.1111C433.873 58.1938 434.056 58.5581 434.006 58.674C433.956 58.7898 433.459 59.0216 433.045 58.9554C432.63 58.8892 432.183 59.9156 431.868 60.015C431.553 60.1143 431.321 60.9587 431.454 61.0083C431.586 61.058 431.868 61.4388 431.752 61.6871C431.636 61.9354 432.697 62.1176 433.045 62.2997L433.393 62.3493C433.542 62.3659 433.708 62.3162 433.873 62.2831L434.155 62.2335C434.453 62.1838 434.835 62.1507 434.984 62.1507C435.133 62.1507 435.547 62.3493 435.481 62.5977C435.415 62.846 435.514 63.5414 435.299 63.591C435.083 63.6407 434.238 63.5414 433.757 63.4751C433.277 63.4089 433.293 64.4685 433.476 64.187C433.658 63.9056 434.636 64.3857 434.437 64.634C434.238 64.8824 433.79 65.6771 433.956 65.7267C434.122 65.7764 435.05 66.2068 435.829 66.7201L436.74 66.9022H436.773C436.74 67.1009 436.492 67.581 436.227 67.9783C435.961 68.3757 436.425 69.5346 436.276 69.6173C436.127 69.7001 436.011 70.1637 436.376 70.3789L436.757 70.5279C436.906 70.5776 437.188 70.4948 437.337 70.3955C437.569 70.263 437.851 70.2796 438.016 70.4782L438.083 70.5776C438.199 70.6769 437.818 70.9915 437.204 71.2564C436.591 71.5213 434.801 70.9252 434.685 70.9418C434.569 70.9584 433.774 71.3888 433.111 71.8027C432.448 72.2166 429.946 72.7464 429.83 72.7464C429.714 72.7464 429.034 73.0941 428.537 73.4252L428.023 73.5907L427.509 73.7563C426.88 73.806 425.769 73.8887 425.04 73.9384L424.791 74.2199L424.195 74.9318C423.416 74.7 422.488 74.5841 422.14 74.6834C421.792 74.7828 420.599 74.7828 420.267 74.8324C419.936 74.8821 418.477 75.2132 417.582 75.4284C416.687 75.6437 413.224 76.2562 411.898 76.4714C410.572 76.6867 406.843 77.1833 406.628 77.2496L406.429 77.3158L404.158 77.8456L402.269 77.7959C400.413 78.425 398.441 79.0873 397.894 79.2694C397.347 79.4515 394.762 79.8488 393.386 80.1137L392.127 80.1468L390.917 80.1799C389.724 80.5111 388.696 80.8091 388.646 80.8753C388.597 80.9415 388.149 81.0408 387.834 81.1071C387.519 81.1733 386.343 81.0408 386.061 81.1898C385.779 81.3389 383.757 81.6037 382.2 81.7693L380.824 82.0508C380.36 82.1501 379.548 81.7362 379.349 81.9017L378.736 82.4315C378.255 82.117 377.725 82.0011 377.559 82.1666C377.394 82.3322 376.581 82.1335 376.267 82.2825C375.952 82.4315 374.725 81.7693 374.079 81.6865L373.681 81.4547C373.068 81.1071 372.455 81.1567 371.825 81.1236H371.709C371.576 81.0243 370.98 80.7428 370.367 80.4945C369.753 80.2462 367.433 79.5012 366.638 79.2528L366.091 78.7561L365.561 78.276C365.958 77.829 366.306 77.4151 366.34 77.3323C366.373 77.2496 366.174 76.786 365.991 76.3721L366.34 75.9748L366.472 75.8258C366.439 75.5774 366.257 75.0973 366.041 74.7662C365.826 74.4351 365.71 73.1934 365.793 72.8788C365.875 72.5643 364.865 72.1173 364.831 71.9683C364.798 71.8193 364.633 70.561 364.5 69.518L364.251 68.5909L364.202 68.3922C363.638 68.3094 362.859 68.3591 362.478 68.4915C362.097 68.624 360.539 69.1869 359.893 69.4518C359.246 69.7167 357.092 70.6107 356.678 71.1901L355.6 70.9749L354.987 70.8425C354.159 71.2233 352.998 71.753 352.418 72.0014C351.838 72.2497 349.833 72.8292 349.336 73.0775C348.839 73.3258 346.949 73.9384 346.32 74.104C345.69 74.2695 344.149 75.3788 343.917 75.5774C343.685 75.7761 342.889 75.2794 342.79 75.2794C342.69 75.2794 341.928 75.4284 341.132 75.5774C340.337 75.7264 338.448 77.3489 337.752 77.6635C337.056 77.978 335.133 78.3919 335.166 78.6734C335.199 78.9548 334.072 78.8058 333.874 78.872C333.675 78.9383 333.26 79.3521 333.128 79.319C332.995 79.2859 331.968 79.5508 331.123 79.8323L330.377 80.1137L329.929 80.2793C329.515 80.5442 328.951 80.7263 328.686 80.6932C328.421 80.6601 327.642 81.1402 327.427 81.2726C327.211 81.4051 326.084 81.8686 325.438 82.0839L324.841 82.2163C323.88 82.415 322.853 82.4646 322.554 83.4745C322.173 83.458 321.361 83.458 320.765 83.4911C320.168 83.5242 319.256 84.6831 319.157 84.6997C319.058 84.7162 318.511 84.8156 318.196 84.8487C317.881 84.8818 316.472 85.4778 315.61 85.8751C314.749 86.2725 311.882 87.1665 311.418 87.3817C310.954 87.5969 309.528 88.2592 309.313 88.4413C309.097 88.6234 307.888 88.7393 307.606 88.9214C307.324 89.1035 306.214 89.534 305.882 89.6002C305.551 89.6664 304.474 89.9975 304.208 90.13C303.943 90.2624 302.037 91.0074 300.562 91.5041L299.336 92.1663L299.104 92.2822C298.806 92.3485 298.06 92.3981 297.43 92.3981L297.331 93.0438V93.11C297.016 93.1597 296.22 93.3584 295.541 93.557C294.861 93.7557 292.856 94.6497 292.16 94.7987C291.464 94.9477 289.26 96.3053 288.216 96.6364L287.321 97.1165L286.177 97.7291C284.736 98.1761 282.979 98.7721 282.25 99.0536C281.52 99.335 279.432 100.295 279.101 100.444C278.769 100.593 277.212 101.106 276.466 101.322C275.72 101.537 273.483 102.63 272.952 102.729C272.422 102.828 270.516 103.557 269.588 103.739L268.826 104.053L268.71 104.103C268.544 104.087 267.301 104.335 265.975 104.649L264.948 105.212C264.301 105.56 263.622 105.676 263.125 105.428C262.429 105.08 261.965 105.014 261.385 105.477L261.302 105.543C261.037 105.461 259.976 105.08 258.965 104.683C257.954 104.285 254.971 103.871 255.236 103.64L255.286 103.474L255.319 103.325C255.203 103.143 254.871 103.044 254.59 103.093L254.407 103.226L254.275 103.325C254.192 103.689 254.093 103.491 254.043 102.878C253.993 102.265 254.49 100.858 254.093 100.759L253.977 100.56C253.827 100.312 253.861 99.9476 253.96 99.6661L254.192 98.9873C253.546 98.8383 253.148 98.6728 253.297 98.6231C253.446 98.5734 253.827 98.3582 253.778 98.2423L253.695 98.2092C253.082 97.9443 252.319 97.7953 251.905 97.398C251.623 97.1331 251.806 96.5371 251.839 96.0901C251.839 95.9411 252.154 95.7424 252.104 95.6596L251.822 95.1629C251.706 94.5669 251.292 93.6564 250.894 93.1431L250.447 92.6961L250.281 92.5306C249.983 92.4147 249.9 92.1995 250.099 92.0339C250.297 91.8683 250.297 90.8584 249.767 90.0306L249.833 89.1035L249.867 88.6068C250.215 88.2923 250.861 87.4479 251.325 86.736L251.192 86.4215C251.143 86.3056 250.877 86.1731 250.712 86.1897C250.198 86.2228 250.48 86.3718 250.563 86.6036C250.629 86.7526 250.248 87.2162 250.132 87.1996L249.336 87.1168C249.27 87.5969 249.071 87.8784 248.905 87.7459C248.74 87.6135 248.209 87.6466 248.143 88.1267C248.077 88.6068 246.221 88.8386 246.038 89.5174L245.259 89.7326C244.215 90.0141 243.32 90.4611 242.624 91.1564L242.276 91.4876C241.746 91.5869 240.851 91.9015 240.304 92.1663C239.757 92.4312 237.967 92.9279 237.868 93.1431L237.719 93.3087L237.404 93.6398C236.874 93.7392 236.211 93.5901 235.929 93.3087C235.647 93.0272 234.653 92.4147 234.636 92.5471C234.62 92.6796 234.802 93.11 234.951 93.3087L235.067 93.5074C235.067 93.5074 234.769 93.706 234.736 93.6729C234.52 93.5405 234.305 93.259 234.205 93.7226C234.172 93.855 234.321 94.1199 234.437 94.153L234.785 94.2027C235.2 94.1862 235.15 94.2358 234.686 94.3186C234.222 94.4014 233.443 95.1795 233.327 95.0967L233.211 95.0471L232.416 94.6663C232.399 95.1629 232.366 95.61 232.349 95.6762C232.333 95.7424 232.183 95.9742 232.084 95.9907C231.985 96.0073 230.941 96.0901 230.012 96.1894L229.383 96.7854C228.819 97.3152 228.189 97.9609 227.228 97.1496C227.145 97.0834 226.681 97.1828 226.665 97.2159C226.648 97.4145 226.698 97.6298 226.764 97.8284V97.9112C226.913 98.0768 226.598 98.0271 226.118 97.8284C225.637 97.6298 224.427 98.0602 224.593 98.1264C224.759 98.1927 224.676 98.6893 224.046 99.1032L223.201 98.2258C223.068 98.0768 222.903 97.9443 222.72 97.845L222.621 97.7953C222.356 97.8119 222.124 98.1927 222.107 98.6231L222.024 99.0039C222.008 99.1198 221.743 99.2688 221.594 99.2688L221.179 99.3019C221.295 99.0867 221.444 98.6231 221.494 98.2754L221.179 98.0271C221.096 97.9609 220.914 97.8781 220.881 97.8947L220.566 98.0602C220.334 98.3582 220.168 98.6728 220.218 98.7721C220.268 98.8714 220.235 99.3019 220.168 99.4675C220.102 99.633 219.588 99.5999 219.522 99.5502C219.456 99.5006 218.693 99.3516 218.445 99.335L218.412 99.4675ZM271.776 59.7666C271.759 59.3527 271.743 59.0713 271.776 59.1375C271.809 59.2037 272.521 59.419 273.4 59.4686L273.93 59.1872L274.46 58.9057C274.775 58.2435 274.543 57.9621 273.963 58.2766L273.466 58.525L272.969 58.7733C273.085 59.3693 272.753 59.7832 272.223 59.7004L271.859 59.5017L271.527 59.3196C271.229 58.8726 270.98 58.8064 270.98 59.1541C270.98 59.5017 271.825 60.164 271.809 59.7501L271.776 59.7666ZM212.893 97.7291C213.108 97.8781 213.423 97.7291 213.605 97.4311L213.804 97.1993C214.003 96.9841 215.097 97.1 215.296 97.3318C215.462 97.5139 215.627 97.7291 215.859 97.8615C216.009 97.9443 216.307 97.994 216.439 97.9112C216.572 97.8284 216.688 97.5304 216.622 97.4642C216.058 96.951 215.843 96.6033 216.953 96.4046L217.235 96.355C217.467 95.9411 217.251 95.5106 216.771 95.4113C216.29 95.312 214.882 95.3451 214.915 95.7589L214.832 96.0901L214.799 96.2556C214.55 96.3881 214.136 96.355 213.871 96.1729L214.103 95.8748L214.186 95.7755C214.318 95.6927 214.252 95.5272 214.036 95.4444H213.854C213.688 95.461 212.81 97.4642 212.876 97.6298L212.926 97.7291H212.893ZM224.262 79.3522C223.615 79.6667 223.466 79.9482 223.914 79.9978C224.361 80.0475 225.107 81.0243 225.273 81.2561C225.438 81.4879 226.317 81.6534 226.333 81.7031C226.35 81.7527 226.284 81.9514 226.134 82.0673C225.985 82.1832 225.952 82.3819 226.002 82.5309C226.052 82.6799 226.648 82.5971 227.145 81.9017L227.344 81.3223L227.659 80.4448C226.764 79.9978 225.604 79.6171 225.057 79.6171L224.527 79.4515L224.229 79.3522H224.262ZM356.18 20.3969C355.816 20.3142 355.451 20.2645 355.385 20.3142C355.319 20.3638 354.904 20.6949 354.672 20.9764C354.44 21.2578 355.6 21.9532 356.263 21.6717L356.86 21.3903L357.109 21.2744C357.506 21.0095 356.545 20.4797 356.18 20.3969ZM385.481 10.7615C385.647 10.9932 386.044 11.0595 386.359 10.927C386.674 10.7946 387.387 10.3476 387.42 10.2648C387.453 10.182 387.354 9.96679 387.188 9.98334H387.039L386.79 10.0165C386.508 10.033 386.409 9.90057 386.575 9.7019L386.624 9.51978L386.658 9.37078C386.558 9.18867 386.243 9.17211 385.928 9.33767C385.614 9.50323 385.332 10.5462 385.498 10.778L385.481 10.7615ZM364.599 16.4567C364.351 16.2249 363.986 16.2745 363.787 16.556C363.588 16.8374 362.246 17.5162 362.18 17.6156C362.113 17.7149 362.147 18.0626 362.412 18.195L362.511 18.1454L362.942 17.897C363.472 17.8474 364.152 17.7315 364.45 17.6652C364.749 17.599 364.865 16.705 364.616 16.4732L364.599 16.4567ZM328.09 32.8138C328.255 32.8966 328.355 32.5323 328.322 32.0026L329.25 32.5986L329.78 32.9462C330.062 32.6317 330.31 32.2178 330.344 32.0357C330.377 31.8536 330.261 31.3569 330.078 31.3569C329.896 31.3569 329.034 31.6218 328.603 31.9694L328.023 32.0853C328.023 32.0853 327.941 32.4827 328.023 32.6648L328.09 32.8138ZM284.885 53.0615C285.15 53.4754 285.581 53.5085 285.829 53.1443C286.078 52.7801 287.172 52.002 287.337 51.8861C287.503 51.7702 287.006 51.3563 286.559 51.2238L286.409 51.3397C285.862 51.7702 285.349 52.2669 285.034 52.8298L284.901 53.0615H284.885ZM235.133 77.7462C235.448 77.9284 235.68 77.6635 235.664 77.1668C235.647 76.6701 234.951 75.9913 234.752 76.041C234.553 76.0907 234.073 76.3224 234.321 76.4052C234.57 76.488 234.901 76.6701 234.669 76.7363C234.437 76.8026 234.338 77.2496 234.553 77.4979L234.885 77.6469L235.117 77.7462H235.133ZM377.626 11.4071C377.51 11.3078 377.311 11.4734 377.161 11.7879L376.929 11.97L376.598 12.2515C376.151 12.4998 375.72 12.7813 375.653 12.8806C375.587 12.9799 375.637 13.3111 375.919 13.427H376.167L376.416 13.3938C376.664 13.2448 377.062 12.9137 377.294 12.6819C377.526 12.4502 377.742 11.5065 377.626 11.4237V11.4071ZM337.254 28.5258C337.37 28.6252 337.503 28.4265 337.569 28.0788C337.636 27.7312 339.16 28.1451 339.707 28.0788L340.204 27.9795H340.238C340.204 27.7808 339.906 27.5159 339.575 27.4C339.243 27.2842 338.166 27.4332 337.868 27.5822C337.569 27.7312 337.155 28.41 337.271 28.5093L337.254 28.5258ZM211.368 88.0108C211.219 87.1499 210.888 86.7857 210.622 87.2162C210.357 87.6466 210.258 88.64 210.987 88.491L211.269 88.1433L211.368 88.0108ZM373.101 14.47C373.582 14.47 373.98 14.2713 374.013 14.0395L374.129 13.9236C374.444 13.6422 374.775 13.3607 374.228 13.0958L374.079 13.0296C373.698 13.2614 372.985 13.7912 372.505 14.2051H371.792L371.659 14.172C371.344 14.3375 372.621 14.4865 373.085 14.4865L373.101 14.47ZM312.81 38.9394C312.395 39.7176 312.611 40.1315 313.323 39.8666L313.522 38.7573C313.522 38.7573 313.638 38.6745 313.671 38.6249L313.721 38.509C313.754 38.36 313.539 38.2441 313.257 38.2275L313.207 38.3103L312.81 38.9394ZM219.621 94.7987C219.422 94.8153 219.472 94.9974 219.737 95.1795C220.003 95.3616 220.914 94.8815 221.262 94.7656L221.577 94.7159C221.859 94.6663 222.14 94.6497 222.389 94.5835C222.455 94.5669 222.488 94.3683 222.455 94.2689L222.422 94.1696C222.306 94.0868 221.792 93.9047 221.295 93.7723C220.798 93.6398 219.82 94.7822 219.621 94.7987ZM223.533 91.6366C223.433 92.6851 224.063 93.4743 225.422 94.004C224.709 93.11 224.179 92.4478 223.533 91.6366Z" fill="#8CC1B7"/>
<path d="M282.415 50.3296C282.995 50.876 283.393 51.3892 283.31 51.4554C283.227 51.5216 282.797 51.5548 282.531 51.3726C282.266 51.1905 281.653 50.4786 282.034 50.3462L282.217 50.2303C282.366 50.1475 282.548 49.982 282.531 49.8661C282.531 49.7502 282.333 49.6012 282.183 49.5184C282.067 49.4687 281.852 49.5515 281.753 49.5018C281.554 49.4025 281.222 49.2038 281.239 49.1045L281.471 48.4091C281.703 48.8065 282.101 49.0217 282.382 48.8727C282.664 48.7237 283.294 48.227 283.476 48.4257C283.658 48.6244 284.156 49.121 284.205 49.1045C284.255 49.0879 284.338 48.7568 284.255 48.3926L284.156 48.078C284.023 47.5979 284.089 47.5482 284.901 47.5814C285.001 47.5814 285.117 47.5317 285.216 47.5151H285.365C285.531 47.5151 285.647 47.7138 285.597 47.9621H285.515C284.702 48.0946 284.47 48.3098 285.117 48.8893C285.382 49.121 285.332 49.3859 284.818 49.5349C284.437 49.6343 284.156 50.0647 283.791 50.131L282.415 50.3462V50.3296Z" fill="#8CC1B7"/>
<path d="M261.733 59.2202C261.849 58.8891 262.197 58.6739 262.528 58.7401C262.86 58.8063 263.788 58.5414 264.086 58.9388C264.384 59.3361 263.473 60.3791 263.688 60.5778C263.904 60.7764 263.307 61.4387 262.81 61.3228C262.313 61.2069 261.567 60.197 261.832 60.1142L262.014 60.0811L262.329 60.0314C262.594 59.8659 262.661 59.601 262.478 59.4189L262.263 59.3692L261.716 59.2202H261.733Z" fill="#8CC1B7"/>
<path d="M266.738 57.7301C267.119 57.9123 266.936 58.6407 266.323 59.3361L265.511 58.7897L264.815 58.3261C265.031 57.5977 266.34 57.548 266.721 57.7301H266.738Z" fill="#8CC1B7"/>
<path d="M314.815 32.7143C314.682 32.8964 314.434 32.8302 314.268 32.5653C314.102 32.3004 315.296 31.8865 315.594 31.7541C315.892 31.6216 316.936 31.3567 317.102 31.5223C317.268 31.6878 317.251 32.0355 316.82 32.0024C316.389 31.9693 316.124 32.9461 316.025 32.9461C315.925 32.9461 314.964 32.5322 314.815 32.7143Z" fill="#8CC1B7"/>
<path d="M260.258 56.7036C260.191 56.356 260.291 56.1739 260.457 56.3229C260.622 56.4719 261.335 56.5878 261.584 56.5215C261.832 56.4553 262.445 56.5215 262.826 56.5878C263.208 56.654 264.086 56.8692 263.987 56.9685C263.887 57.0679 263.373 57.1672 263.092 57.2003C262.81 57.2334 262.611 57.7798 262.313 57.5811C262.014 57.3824 261.219 57.1838 260.771 57.0182L260.473 56.8361L260.241 56.7036H260.258Z" fill="#8CC1B7"/>
<path d="M312.627 34.3866C312.395 34.6018 312.313 34.8667 312.462 34.9826C312.611 35.0985 312.694 35.4462 312.346 35.4958C311.998 35.5455 311.318 34.7177 311.285 34.2045L311.832 33.9396L312.279 33.7244C312.942 33.6581 312.859 34.1714 312.627 34.3866Z" fill="#8CC1B7"/>
<path d="M266.439 54.5681C265.926 54.7833 265.611 54.7005 265.743 54.3694C265.876 54.0383 266.224 53.1443 266.539 53.1443C266.854 53.1443 266.953 54.3363 266.439 54.5681Z" fill="#8CC1B7"/>
<path d="M299.75 37.0686C300.231 37.6315 300.181 38.1282 299.618 38.1613C299.054 38.1944 298.275 39.1381 297.762 38.9394L297.397 38.7407C297.397 38.7407 297.546 38.2441 297.596 38.2441C298.226 38.2772 298.706 38.1613 299.121 37.7308L299.767 37.0686H299.75Z" fill="#8CC1B7"/>
<path d="M273.897 53.2104C273.98 53.376 273.947 53.5747 273.831 53.6409C273.715 53.7071 273.599 54.1376 273.599 54.4025C273.599 54.6674 273.483 55.2634 273.35 55.1971C273.218 55.1309 272.455 54.5846 271.908 54.1707L272.289 53.7568C272.588 53.4257 273.334 53.376 273.88 53.2104H273.897Z" fill="#8CC1B7"/>
<path d="M268.445 55.9919C268.577 56.2734 268.494 56.4886 268.246 56.4886C267.997 56.4886 267.152 56.5714 267.417 56.6542C267.682 56.7369 268.163 57.0515 267.798 57.0846C267.434 57.1177 266.489 56.919 266.34 56.6045C266.191 56.2899 267.384 55.876 267.401 55.6608C267.417 55.4456 268.312 55.6939 268.445 55.9754V55.9919Z" fill="#8CC1B7"/>
<path d="M268.992 57.366C268.809 56.8527 268.942 56.5216 269.29 56.6375C269.638 56.7534 270.152 55.909 270.317 55.8263C270.483 55.7435 270.881 55.7931 270.848 55.909C270.815 56.0249 271.08 56.4388 271.146 56.5547C271.212 56.6706 270.881 56.9024 270.102 56.5547L269.406 57.0679L269.008 57.366H268.992Z" fill="#8CC1B7"/>
<path d="M217.251 99.4178C217.765 99.5171 218.014 99.8317 217.815 100.13H217.649C217.318 100.163 216.903 100.13 216.655 99.9641L215.677 99.3516C215.627 99.9807 215.528 100.279 215.462 100.014C215.395 99.7489 216.738 99.3185 217.235 99.4178H217.251Z" fill="#8CC1B7"/>
<path d="M307.424 37.6149C306.628 37.3168 306.645 37.3665 307.49 37.7142L308.285 37.1513L308.435 37.0354C309.147 37.35 309.247 37.9129 308.65 38.2771L308.07 37.9625L307.424 37.6149Z" fill="#8CC1B7"/>
<path d="M287.868 46.4061C288.067 46.4558 288.332 46.3565 288.481 46.1743C288.63 45.9922 289.227 45.5618 289.343 45.8598L289.293 45.9922C289.21 46.2075 288.945 46.373 288.879 46.5717L288.779 46.8862C288.514 47.118 287.967 47.118 287.603 46.8862L287.338 46.6048L287.255 46.522C287.056 46.2902 287.686 46.3399 287.868 46.3896V46.4061Z" fill="#8CC1B7"/>
<path d="M283.194 45.2802C283.824 45.4292 284.172 45.7934 283.94 46.0749C283.708 46.3563 282.681 45.8762 282.531 45.8431L282.449 46.3232C282.432 46.4226 282.183 46.5881 282.15 46.5716L281.835 46.4557C281.504 46.2736 282.565 45.1312 283.194 45.2802Z" fill="#8CC1B7"/>
<path d="M264.301 53.9389C264.235 53.5085 264.434 53.3098 264.749 53.5085C265.064 53.7071 264.649 54.6012 264.152 54.9985L263.672 55.3296C263.672 55.3296 263.39 55.2634 263.324 55.1806C263.257 55.0978 263.224 54.8992 263.291 54.8329C263.556 54.6177 264.02 54.4853 264.136 54.2369L264.285 53.9389H264.301Z" fill="#8CC1B7"/>
<path d="M253.562 68.2763C253.413 68.6406 253.198 68.8723 253.082 68.7896L252.866 68.5412L252.717 68.3591C252.618 68.1273 252.651 67.9949 252.783 68.0611C252.916 68.1273 253.496 67.9618 253.728 67.8459C253.96 67.73 254.623 67.4982 254.64 67.6141C254.656 67.73 254.954 68.0114 255.104 68.1273C255.253 68.2432 254.954 68.6737 254.656 68.773L254.292 68.5909L253.579 68.2432L253.562 68.2763Z" fill="#8CC1B7"/>
</g>
<defs>
<clipPath id="clip0_16_549">
<rect width="438" height="112" fill="white"/>
</clipPath>
</defs>
</svg>
